<svg width="18" height="18" viewBox="0 0 18 18" fill="none" xmlns="http://www.w3.org/2000/svg">
<g id="Download File">
<path id="Vector" d="M14.5 6.89625C14.4928 6.83309 14.479 6.77087 14.4588 6.71063V6.64875C14.4257 6.57806 14.3816 6.51308 14.3281 6.45625L10.2031 2.33125C10.1463 2.27777 10.0813 2.23368 10.0106 2.20062H9.94187C9.87503 2.16488 9.80318 2.13938 9.72875 2.125H5.5625C5.01549 2.125 4.49089 2.3423 4.10409 2.72909C3.7173 3.11589 3.5 3.64049 3.5 4.1875V13.8125C3.5 14.3595 3.7173 14.8841 4.10409 15.2709C4.49089 15.6577 5.01549 15.875 5.5625 15.875H12.4375C12.9845 15.875 13.5091 15.6577 13.8959 15.2709C14.2827 14.8841 14.5 14.3595 14.5 13.8125V6.9375C14.5 6.9375 14.5 6.9375 14.5 6.89625ZM10.375 4.46937L12.1556 6.25H11.0625C10.8802 6.25 10.7053 6.17757 10.5764 6.04864C10.4474 5.9197 10.375 5.74484 10.375 5.5625V4.46937ZM13.125 13.8125C13.125 13.9948 13.0526 14.1697 12.9236 14.2986C12.7947 14.4276 12.6198 14.5 12.4375 14.5H5.5625C5.38016 14.5 5.2053 14.4276 5.07636 14.2986C4.94743 14.1697 4.875 13.9948 4.875 13.8125V4.1875C4.875 4.00516 4.94743 3.8303 5.07636 3.70136C5.2053 3.57243 5.38016 3.5 5.5625 3.5H9V5.5625C9 6.10951 9.2173 6.63411 9.60409 7.02091C9.99089 7.4077 10.5155 7.625 11.0625 7.625H13.125V13.8125ZM9.88688 10.5744L9.6875 10.7806V9C9.6875 8.81766 9.61507 8.6428 9.48614 8.51386C9.3572 8.38493 9.18234 8.3125 9 8.3125C8.81766 8.3125 8.6428 8.38493 8.51386 8.51386C8.38493 8.6428 8.3125 8.81766 8.3125 9V10.7806L8.11312 10.5744C7.98367 10.4449 7.80808 10.3722 7.625 10.3722C7.44192 10.3722 7.26633 10.4449 7.13687 10.5744C7.00742 10.7038 6.93469 10.8794 6.93469 11.0625C6.93469 11.2456 7.00742 11.4212 7.13687 11.5506L8.51188 12.9256C8.57726 12.9882 8.65436 13.0373 8.73875 13.07C8.82104 13.1064 8.91003 13.1252 9 13.1252C9.08997 13.1252 9.17896 13.1064 9.26125 13.07C9.34564 13.0373 9.42274 12.9882 9.48812 12.9256L10.8631 11.5506C10.9926 11.4212 11.0653 11.2456 11.0653 11.0625C11.0653 10.8794 10.9926 10.7038 10.8631 10.5744C10.7337 10.4449 10.5581 10.3722 10.375 10.3722C10.1919 10.3722 10.0163 10.4449 9.88688 10.5744Z" fill="#111827"/>
</g>
</svg>
