<svg width="28" height="27" viewBox="0 0 28 27" fill="none" xmlns="http://www.w3.org/2000/svg">
<path d="M13.9999 0.166656C11.4139 0.17157 8.88508 0.928404 6.72154 2.34497C4.558 3.76154 2.8531 5.77671 1.81449 8.14502C0.775885 10.5133 0.448404 13.1325 0.871937 15.6837C1.29547 18.2348 2.45174 20.6077 4.1999 22.5133C5.44847 23.8667 6.96382 24.9468 8.65049 25.6856C10.3371 26.4244 12.1585 26.8058 13.9999 26.8058C15.8413 26.8058 17.6627 26.4244 19.3493 25.6856C21.036 24.9468 22.5513 23.8667 23.7999 22.5133C25.5481 20.6077 26.7043 18.2348 27.1279 15.6837C27.5514 13.1325 27.2239 10.5133 26.1853 8.14502C25.1467 5.77671 23.4418 3.76154 21.2783 2.34497C19.1147 0.928404 16.5859 0.17157 13.9999 0.166656ZM13.9999 24.1667C11.2379 24.1625 8.58512 23.087 6.5999 21.1667C7.20263 19.6994 8.22795 18.4444 9.54557 17.5612C10.8632 16.678 12.4136 16.2064 13.9999 16.2064C15.5862 16.2064 17.1366 16.678 18.4542 17.5612C19.7719 18.4444 20.7972 19.6994 21.3999 21.1667C19.4147 23.087 16.7619 24.1625 13.9999 24.1667ZM11.3332 10.8333C11.3332 10.3059 11.4896 9.79033 11.7826 9.3518C12.0757 8.91327 12.4921 8.57148 12.9794 8.36964C13.4667 8.16781 14.0029 8.115 14.5201 8.2179C15.0374 8.32079 15.5126 8.57477 15.8855 8.94771C16.2585 9.32065 16.5124 9.7958 16.6153 10.3131C16.7182 10.8304 16.6654 11.3665 16.4636 11.8538C16.2617 12.3411 15.92 12.7576 15.4814 13.0506C15.0429 13.3436 14.5273 13.5 13.9999 13.5C13.2927 13.5 12.6144 13.219 12.1143 12.7189C11.6142 12.2188 11.3332 11.5406 11.3332 10.8333ZM23.2132 18.8333C22.0219 16.7957 20.1884 15.2107 17.9999 14.3267C18.6788 13.5569 19.1211 12.6075 19.2739 11.5926C19.4266 10.5776 19.2832 9.54014 18.8609 8.60465C18.4386 7.66916 17.7553 6.8754 16.8931 6.31861C16.0309 5.76182 15.0263 5.46566 13.9999 5.46566C12.9735 5.46566 11.9689 5.76182 11.1067 6.31861C10.2445 6.8754 9.56119 7.66916 9.1389 8.60465C8.71661 9.54014 8.57322 10.5776 8.72594 11.5926C8.87866 12.6075 9.32101 13.5569 9.9999 14.3267C7.81137 15.2107 5.97786 16.7957 4.78657 18.8333C3.83716 17.2161 3.33553 15.3753 3.33324 13.5C3.33324 10.671 4.45704 7.95791 6.45743 5.95752C8.45782 3.95713 11.1709 2.83332 13.9999 2.83332C16.8289 2.83332 19.542 3.95713 21.5424 5.95752C23.5428 7.95791 24.6666 10.671 24.6666 13.5C24.6643 15.3753 24.1626 17.2161 23.2132 18.8333Z" fill="#D1D5DB"/>
</svg>
