<svg width="117" height="117" viewBox="0 0 117 117" fill="none" xmlns="http://www.w3.org/2000/svg">
<rect x="0.255981" y="0.234009" width="116.252" height="116.252" rx="58.126" fill="#E5E7EB"/>
<rect width="116" height="116" rx="58" fill="url(#paint0_linear_4_836)"/>
<g filter="url(#filter0_d_4_836)">
<path d="M44.6854 72.9514C42.9966 72.9514 41.4887 72.5895 40.1618 71.8657C38.8589 71.1178 37.8336 70.0925 37.0857 68.7897C36.3619 67.4627 36 65.9548 36 64.266C36 63.7111 36.1809 63.2648 36.5428 62.927C36.9047 62.5651 37.3511 62.3842 37.8818 62.3842C38.4367 62.3842 38.8831 62.5651 39.2208 62.927C39.5827 63.2648 39.7637 63.7111 39.7637 64.266C39.7637 65.3034 39.9687 66.2202 40.3789 67.0164C40.8132 67.8126 41.3922 68.4398 42.116 68.8982C42.8639 69.3325 43.7204 69.5496 44.6854 69.5496C45.6505 69.5496 46.5069 69.3325 47.2548 68.8982C48.0028 68.4398 48.5818 67.8126 48.9919 67.0164C49.4262 66.2202 49.6433 65.3034 49.6433 64.266V46.2076C49.6433 45.6527 49.8122 45.2064 50.15 44.8686C50.5119 44.5067 50.9582 44.3258 51.489 44.3258C52.0439 44.3258 52.5023 44.5067 52.8642 44.8686C53.2261 45.2064 53.407 45.6527 53.407 46.2076V64.266C53.407 65.9548 53.0331 67.4627 52.2851 68.7897C51.5372 70.0925 50.5119 71.1178 49.2091 71.8657C47.9062 72.5895 46.3984 72.9514 44.6854 72.9514Z" fill="#FFFBEB"/>
<path d="M69.6189 72.9514C68.0749 72.9514 66.6032 72.7102 65.2038 72.2276C63.8045 71.7451 62.5862 71.0696 61.5487 70.201C60.5113 69.3325 59.7513 68.3313 59.2688 67.1973C59.0275 66.6907 59.0275 66.2202 59.2688 65.786C59.5342 65.3517 59.9685 65.0742 60.5716 64.9536C61.0059 64.8571 61.4281 64.9295 61.8382 65.1707C62.2725 65.3879 62.5982 65.7256 62.8154 66.184C63.1049 66.7872 63.5753 67.3421 64.2267 67.8487C64.9023 68.3554 65.7105 68.7655 66.6514 69.0792C67.5923 69.3928 68.5815 69.5496 69.6189 69.5496C70.777 69.5496 71.8385 69.3687 72.8036 69.0068C73.7927 68.6449 74.5889 68.1262 75.1921 67.4507C75.7952 66.751 76.0968 65.8945 76.0968 64.8812C76.0968 63.6025 75.5901 62.4566 74.5768 61.4433C73.5877 60.43 71.9471 59.8027 69.6551 59.5614C66.6635 59.2719 64.3112 58.3913 62.5982 56.9196C60.8853 55.4479 60.0288 53.6264 60.0288 51.455C60.0288 49.8627 60.4751 48.5116 61.3678 47.4018C62.2605 46.292 63.4668 45.4476 64.9867 44.8686C66.5308 44.2896 68.2437 44.0001 70.1256 44.0001C71.5973 44.0001 72.8759 44.2051 73.9616 44.6153C75.0714 45.0254 76.0365 45.5924 76.8568 46.3162C77.6771 47.04 78.3888 47.8964 78.9919 48.8856C79.3297 49.4164 79.4624 49.923 79.39 50.4055C79.3418 50.8639 79.1126 51.2258 78.7024 51.4912C78.244 51.7807 77.7494 51.8411 77.2187 51.6722C76.6879 51.5033 76.2898 51.1896 76.0244 50.7313C75.6384 50.0316 75.1679 49.4405 74.613 48.958C74.0581 48.4755 73.4067 48.1015 72.6588 47.8361C71.9109 47.5466 71.0303 47.4018 70.017 47.4018C68.2317 47.3777 66.7358 47.7155 65.5295 48.4151C64.3232 49.0907 63.7201 50.1402 63.7201 51.5636C63.7201 52.2874 63.901 52.987 64.2629 53.6626C64.6489 54.314 65.3365 54.8809 66.3257 55.3635C67.339 55.846 68.7866 56.1838 70.6684 56.3768C73.5394 56.6663 75.7711 57.5469 77.3634 59.0186C78.9799 60.4661 79.7881 62.3842 79.7881 64.7727C79.7881 66.1479 79.4986 67.3421 78.9195 68.3554C78.3646 69.3687 77.6047 70.2252 76.6396 70.9248C75.6987 71.6004 74.613 72.107 73.3826 72.4448C72.1763 72.7825 70.9217 72.9514 69.6189 72.9514Z" fill="#FFFBEB"/>
<path d="M39.6872 72.6924L39.6962 72.6976L39.7053 72.7025C41.1881 73.5113 42.8561 73.9046 44.6854 73.9046C46.5359 73.9046 48.2076 73.5125 49.672 72.699L49.672 72.6991L49.6836 72.6924C51.1329 71.8604 52.2798 70.7135 53.1118 69.2642L53.1118 69.2642L53.1155 69.2577C53.9524 67.7728 54.3602 66.1006 54.3602 64.266V46.2076C54.3602 45.4293 54.0977 44.7225 53.5266 44.1831C52.9718 43.6344 52.2678 43.3726 51.489 43.3726C50.7159 43.3726 50.0239 43.6467 49.476 44.1946C48.9305 44.7401 48.6902 45.4441 48.6902 46.2076V64.266C48.6902 65.1672 48.5026 65.9229 48.1551 66.56L48.1497 66.5699L48.1446 66.5799C47.8143 67.221 47.3578 67.7148 46.7665 68.0796C46.1824 68.4163 45.4978 68.5965 44.6854 68.5965C43.8759 68.5965 43.1932 68.4176 42.6104 68.0831C42.0415 67.7191 41.5786 67.2217 41.2211 66.5699C40.8941 65.9308 40.7169 65.171 40.7169 64.266C40.7169 63.4931 40.4579 62.7907 39.8951 62.2527C39.3572 61.6899 38.6548 61.431 37.8818 61.431C37.1141 61.431 36.4264 61.7013 35.8804 62.2416C35.3093 62.7809 35.0468 63.4877 35.0468 64.266C35.0468 66.0953 35.4401 67.7633 36.2489 69.2461L36.2539 69.2552L36.259 69.2642C37.091 70.7135 38.2379 71.8604 39.6872 72.6924ZM58.4555 65.2889L58.4452 65.3058L58.4356 65.3231C58.0271 66.0583 58.0538 66.8502 58.3992 67.5879C58.9465 68.8662 59.8007 69.9807 60.9369 70.9319C62.0715 71.8818 63.3942 72.6119 64.8931 73.1287C66.3967 73.6472 67.9737 73.9046 69.6189 73.9046C71.0042 73.9046 72.3446 73.725 73.637 73.3634C74.9646 72.9987 76.1545 72.4465 77.1955 71.6991L77.1991 71.6965C78.2723 70.9184 79.1269 69.9586 79.7514 68.8208C80.4234 67.6414 80.7413 66.2808 80.7413 64.7727C80.7413 62.1463 79.8412 59.9607 78.0049 58.3135C76.2179 56.6647 73.7707 55.7318 70.7651 55.4285C68.9311 55.2404 67.6096 54.9182 66.7395 54.5048C65.8597 54.075 65.3528 53.6217 65.093 53.1934C64.8077 52.6542 64.6733 52.1146 64.6733 51.5636C64.6733 50.989 64.7939 50.5405 64.9989 50.1839C65.203 49.8287 65.5206 49.5126 65.9953 49.2468L66.0015 49.2433L66.0078 49.2397C67.0287 48.6475 68.3436 48.3325 70.0041 48.3549L70.0041 48.355H70.017C70.9424 48.355 71.7012 48.4875 72.3147 48.725L72.3273 48.7299L72.3401 48.7344C72.9844 48.963 73.5297 49.2791 73.9876 49.6773C74.4511 50.0803 74.8531 50.5814 75.1898 51.1917L75.1946 51.2003L75.1995 51.2088C75.5903 51.8838 76.1857 52.3438 76.9296 52.5805C77.7201 52.832 78.5078 52.7415 79.2114 52.2971L79.2114 52.2972L79.2202 52.2915C79.8498 51.8841 80.2502 51.2805 80.3357 50.5262C80.4435 49.7676 80.2187 49.041 79.8012 48.3819C79.1521 47.3191 78.3814 46.3902 77.4874 45.6014C76.5728 44.7944 75.5049 44.1698 74.2952 43.7224C73.0781 43.2631 71.6814 43.0469 70.1256 43.0469C68.1454 43.0469 66.3171 43.3517 64.652 43.9761L64.652 43.9761L64.6474 43.9779C62.9922 44.6084 61.6381 45.545 60.6251 46.8044C59.5801 48.1036 59.0756 49.6726 59.0756 51.455C59.0756 53.9167 60.063 55.9981 61.9771 57.6426C63.8803 59.2778 66.4377 60.2071 69.5592 60.5098C71.757 60.7416 73.1327 61.3284 73.8948 62.1091L73.8947 62.1091L73.9028 62.1173C74.761 62.9754 75.1436 63.8868 75.1436 64.8812C75.1436 65.6863 74.9114 66.3133 74.476 66.8215C73.9937 67.3596 73.3391 67.7959 72.4761 68.1117L72.4761 68.1116L72.4689 68.1143C71.6233 68.4314 70.6767 68.5965 69.6189 68.5965C68.6792 68.5965 67.7921 68.4547 66.9528 68.1749C66.0959 67.8893 65.3848 67.5245 64.8053 67.0912C64.2482 66.6566 63.8873 66.2138 63.6755 65.7734C63.3761 65.1426 62.912 64.65 62.2934 64.3328C61.7015 63.9928 61.0479 63.874 60.375 64.0209C59.5741 64.1832 58.8862 64.5841 58.4555 65.2889Z" stroke="#FFFBEB" stroke-width="1.90635"/>
</g>
<g filter="url(#filter1_f_4_836)">
<rect x="9.10718" y="9.10718" width="97.7856" height="97.7856" rx="48.8928" stroke="url(#paint1_linear_4_836)" stroke-opacity="0.5" stroke-width="2" stroke-linecap="round" stroke-linejoin="round" stroke-dasharray="6 6"/>
</g>
<defs>
<filter id="filter0_d_4_836" x="29.0936" y="39.0937" width="57.6008" height="42.7641" filterUnits="userSpaceOnUse" color-interpolation-filters="sRGB">
<feFlood flood-opacity="0" result="BackgroundImageFix"/>
<feColorMatrix in="SourceAlpha" type="matrix" values="0 0 0 0 0 0 0 0 0 0 0 0 0 0 0 0 0 0 127 0" result="hardAlpha"/>
<feOffset dy="2"/>
<feGaussianBlur stdDeviation="2.5"/>
<feComposite in2="hardAlpha" operator="out"/>
<feColorMatrix type="matrix" values="0 0 0 0 0 0 0 0 0 0 0 0 0 0 0 0 0 0 0.08 0"/>
<feBlend mode="normal" in2="BackgroundImageFix" result="effect1_dropShadow_4_836"/>
<feBlend mode="normal" in="SourceGraphic" in2="effect1_dropShadow_4_836" result="shape"/>
</filter>
<filter id="filter1_f_4_836" x="6.10718" y="6.10718" width="103.786" height="103.786" filterUnits="userSpaceOnUse" color-interpolation-filters="sRGB">
<feFlood flood-opacity="0" result="BackgroundImageFix"/>
<feBlend mode="normal" in="SourceGraphic" in2="BackgroundImageFix" result="shape"/>
<feGaussianBlur stdDeviation="1" result="effect1_foregroundBlur_4_836"/>
</filter>
<linearGradient id="paint0_linear_4_836" x1="58" y1="0" x2="58" y2="116" gradientUnits="userSpaceOnUse">
<stop stop-color="#FBBF24"/>
<stop offset="1" stop-color="#EF9C1F"/>
</linearGradient>
<linearGradient id="paint1_linear_4_836" x1="58" y1="9.10718" x2="34.086" y2="65.4315" gradientUnits="userSpaceOnUse">
<stop stop-color="white"/>
<stop offset="1" stop-color="white" stop-opacity="0"/>
</linearGradient>
</defs>
</svg>
