<svg width="117" height="117" viewBox="0 0 117 117" fill="none" xmlns="http://www.w3.org/2000/svg">
<rect x="0.562988" y="0.233948" width="116.252" height="116.252" rx="58.126" fill="#F3F4F6"/>
<g clip-path="url(#clip0_79_298)">
<path d="M70.6054 27.2856C70.6054 25.1566 68.2217 25.1566 67.1622 25.4227C68.6454 24.2518 70.3847 24.5357 71.0027 24.8905L85.3257 31.9136C86.6905 32.5828 87.5562 33.9752 87.5562 35.5011V81.7028C87.5562 83.2491 86.6675 84.6563 85.275 85.3147L71.7972 91.6875C70.8702 92.0867 68.8573 93.0713 67.1622 91.6875C69.2811 92.0867 70.4288 90.5787 70.6054 89.5585V27.2856Z" fill="url(#paint0_linear_79_298)"/>
<path d="M67.3346 25.3842C68.459 25.162 70.6058 25.2651 70.6058 27.2855V43.1887L27.1808 76.04C26.4218 76.6142 25.3536 76.5189 24.7071 75.8193L20.2315 70.9765C19.5304 70.2178 19.5794 69.0302 20.3407 68.3325L67.1627 25.4226L67.3346 25.3842Z" fill="url(#paint1_linear_79_298)"/>
<path d="M70.6058 73.9215L27.1808 41.0702C26.4218 40.496 25.3536 40.5913 24.7071 41.2909L20.2315 46.1338C19.5304 46.8924 19.5794 48.08 20.3407 48.7777L67.1627 91.6876C69.2815 92.0868 70.4293 90.5787 70.6058 89.5586V73.9215Z" fill="url(#paint2_linear_79_298)"/>
</g>
<defs>
<linearGradient id="paint0_linear_79_298" x1="77.3592" y1="24.5806" x2="77.3592" y2="92.4012" gradientUnits="userSpaceOnUse">
<stop stop-color="#32B5F1"/>
<stop offset="1" stop-color="#2B9FED"/>
</linearGradient>
<linearGradient id="paint1_linear_79_298" x1="70.6058" y1="33.1402" x2="22.2108" y2="73.7627" gradientUnits="userSpaceOnUse">
<stop stop-color="#0F6FB3"/>
<stop offset="0.270551" stop-color="#1279B7"/>
<stop offset="0.421376" stop-color="#1176B5"/>
<stop offset="0.618197" stop-color="#0E69AC"/>
<stop offset="0.855344" stop-color="#0F70AF"/>
<stop offset="1" stop-color="#0F6DAD"/>
</linearGradient>
<linearGradient id="paint2_linear_79_298" x1="22.5342" y1="43.9184" x2="70.7932" y2="83.8767" gradientUnits="userSpaceOnUse">
<stop stop-color="#1791D2"/>
<stop offset="1" stop-color="#1173C5"/>
</linearGradient>
<clipPath id="clip0_79_298">
<rect width="77.5093" height="77.5093" fill="white" transform="translate(19.7361 19.7363)"/>
</clipPath>
</defs>
</svg>
