<svg width="139" height="139" viewBox="0 0 139 139" fill="none" xmlns="http://www.w3.org/2000/svg">
<g filter="url(#filter0_d_4_830)">
<rect x="4.1438" y="1.96826" width="130.784" height="130.784" rx="65.3918" fill="white" shape-rendering="crispEdges"/>
<rect x="4.59791" y="2.42237" width="129.875" height="129.875" rx="64.9376" stroke="#F3F4F6" stroke-width="0.908219" shape-rendering="crispEdges"/>
<rect x="11.4095" y="9.23401" width="116.252" height="116.252" rx="58.126" fill="#E5E7EB"/>
<rect x="12" y="9" width="116" height="116" rx="58" fill="#FF5811"/>
<g filter="url(#filter1_f_4_830)">
<rect x="21.1072" y="18.1072" width="97.7856" height="97.7856" rx="48.8928" stroke="url(#paint0_linear_4_830)" stroke-opacity="0.5" stroke-width="2" stroke-linecap="round" stroke-linejoin="round" stroke-dasharray="6 6"/>
</g>
<g filter="url(#filter2_d_4_830)">
<mask id="path-6-outside-1_4_830" maskUnits="userSpaceOnUse" x="30" y="54" width="82" height="24" fill="black">
<rect fill="white" x="30" y="54" width="82" height="24"/>
<path d="M33.422 76C33.143 76 32.9132 75.9097 32.7327 75.7292C32.5522 75.5487 32.4619 75.3189 32.4619 75.0399V57.7328C32.4619 57.4538 32.5522 57.224 32.7327 57.0435C32.9132 56.8629 33.143 56.7726 33.422 56.7726C33.701 56.7726 33.9308 56.8629 34.1114 57.0435C34.2919 57.224 34.3822 57.4538 34.3822 57.7328V65.4139H46.3962V57.7328C46.3962 57.4538 46.4864 57.224 46.667 57.0435C46.8475 56.8629 47.0773 56.7726 47.3563 56.7726C47.6353 56.7726 47.8651 56.8629 48.0456 57.0435C48.2262 57.224 48.3165 57.4538 48.3165 57.7328V75.0399C48.3165 75.3189 48.2262 75.5487 48.0456 75.7292C47.8651 75.9097 47.6353 76 47.3563 76C47.0773 76 46.8475 75.9097 46.667 75.7292C46.4864 75.5487 46.3962 75.3189 46.3962 75.0399V67.1372H34.3822V75.0399C34.3822 75.3189 34.2919 75.5487 34.1114 75.7292C33.9308 75.9097 33.701 76 33.422 76ZM60.0535 76C59.7909 76 59.5611 75.9097 59.3642 75.7292C59.1836 75.5322 59.0934 75.3025 59.0934 75.0399V56.7726H61.0136V75.0399C61.0136 75.3025 60.9234 75.5322 60.7428 75.7292C60.5623 75.9097 60.3325 76 60.0535 76ZM53.2587 58.5206C52.9961 58.5206 52.7827 58.4385 52.6186 58.2744C52.4545 58.1103 52.3724 57.9051 52.3724 57.6589C52.3724 57.3963 52.4545 57.183 52.6186 57.0188C52.7827 56.8547 52.9961 56.7726 53.2587 56.7726H66.8729C67.1355 56.7726 67.3489 56.8547 67.513 57.0188C67.6772 57.183 67.7592 57.3963 67.7592 57.6589C67.7592 57.9051 67.6772 58.1103 67.513 58.2744C67.3489 58.4385 67.1355 58.5206 66.8729 58.5206H53.2587ZM72.7882 76C72.5256 76 72.2958 75.9097 72.0989 75.7292C71.9183 75.5322 71.8281 75.3025 71.8281 75.0399V57.7328C71.8281 57.4538 71.9183 57.224 72.0989 57.0435C72.2958 56.8629 72.5256 56.7726 72.7882 56.7726C73.1821 56.7726 73.4693 56.9368 73.6499 57.265L81.9464 73.7597H81.1094L89.2582 57.265C89.4552 56.9368 89.7424 56.7726 90.1199 56.7726C90.3825 56.7726 90.6041 56.8629 90.7846 57.0435C90.9652 57.224 91.0554 57.4538 91.0554 57.7328V75.0399C91.0554 75.3025 90.9652 75.5322 90.7846 75.7292C90.6041 75.9097 90.3825 76 90.1199 76C89.8409 76 89.6029 75.9097 89.406 75.7292C89.2254 75.5322 89.1351 75.3025 89.1351 75.0399V60.2193L89.5537 60.2439L82.2911 75.0891C82.1106 75.4009 81.8315 75.5569 81.4541 75.5569C81.0437 75.5569 80.7483 75.3599 80.5678 74.966L73.256 60.3424L73.7483 60.2193V75.0399C73.7483 75.3025 73.6499 75.5322 73.4529 75.7292C73.2724 75.9097 73.0508 76 72.7882 76ZM98.1812 76C97.9186 76 97.6889 75.9097 97.4919 75.7292C97.3114 75.5487 97.2211 75.3189 97.2211 75.0399V57.7328C97.2211 57.4702 97.3114 57.2486 97.4919 57.0681C97.6889 56.8711 97.9186 56.7726 98.1812 56.7726C98.4438 56.7726 98.6654 56.8711 98.846 57.0681C99.0429 57.2486 99.1414 57.4702 99.1414 57.7328V74.1782H108.767C109.03 74.1782 109.252 74.2685 109.432 74.449C109.629 74.6131 109.728 74.8265 109.728 75.0891C109.728 75.3517 109.629 75.5733 109.432 75.7538C109.252 75.9179 109.03 76 108.767 76H98.1812Z"/>
</mask>
<path d="M33.422 76C33.143 76 32.9132 75.9097 32.7327 75.7292C32.5522 75.5487 32.4619 75.3189 32.4619 75.0399V57.7328C32.4619 57.4538 32.5522 57.224 32.7327 57.0435C32.9132 56.8629 33.143 56.7726 33.422 56.7726C33.701 56.7726 33.9308 56.8629 34.1114 57.0435C34.2919 57.224 34.3822 57.4538 34.3822 57.7328V65.4139H46.3962V57.7328C46.3962 57.4538 46.4864 57.224 46.667 57.0435C46.8475 56.8629 47.0773 56.7726 47.3563 56.7726C47.6353 56.7726 47.8651 56.8629 48.0456 57.0435C48.2262 57.224 48.3165 57.4538 48.3165 57.7328V75.0399C48.3165 75.3189 48.2262 75.5487 48.0456 75.7292C47.8651 75.9097 47.6353 76 47.3563 76C47.0773 76 46.8475 75.9097 46.667 75.7292C46.4864 75.5487 46.3962 75.3189 46.3962 75.0399V67.1372H34.3822V75.0399C34.3822 75.3189 34.2919 75.5487 34.1114 75.7292C33.9308 75.9097 33.701 76 33.422 76ZM60.0535 76C59.7909 76 59.5611 75.9097 59.3642 75.7292C59.1836 75.5322 59.0934 75.3025 59.0934 75.0399V56.7726H61.0136V75.0399C61.0136 75.3025 60.9234 75.5322 60.7428 75.7292C60.5623 75.9097 60.3325 76 60.0535 76ZM53.2587 58.5206C52.9961 58.5206 52.7827 58.4385 52.6186 58.2744C52.4545 58.1103 52.3724 57.9051 52.3724 57.6589C52.3724 57.3963 52.4545 57.183 52.6186 57.0188C52.7827 56.8547 52.9961 56.7726 53.2587 56.7726H66.8729C67.1355 56.7726 67.3489 56.8547 67.513 57.0188C67.6772 57.183 67.7592 57.3963 67.7592 57.6589C67.7592 57.9051 67.6772 58.1103 67.513 58.2744C67.3489 58.4385 67.1355 58.5206 66.8729 58.5206H53.2587ZM72.7882 76C72.5256 76 72.2958 75.9097 72.0989 75.7292C71.9183 75.5322 71.8281 75.3025 71.8281 75.0399V57.7328C71.8281 57.4538 71.9183 57.224 72.0989 57.0435C72.2958 56.8629 72.5256 56.7726 72.7882 56.7726C73.1821 56.7726 73.4693 56.9368 73.6499 57.265L81.9464 73.7597H81.1094L89.2582 57.265C89.4552 56.9368 89.7424 56.7726 90.1199 56.7726C90.3825 56.7726 90.6041 56.8629 90.7846 57.0435C90.9652 57.224 91.0554 57.4538 91.0554 57.7328V75.0399C91.0554 75.3025 90.9652 75.5322 90.7846 75.7292C90.6041 75.9097 90.3825 76 90.1199 76C89.8409 76 89.6029 75.9097 89.406 75.7292C89.2254 75.5322 89.1351 75.3025 89.1351 75.0399V60.2193L89.5537 60.2439L82.2911 75.0891C82.1106 75.4009 81.8315 75.5569 81.4541 75.5569C81.0437 75.5569 80.7483 75.3599 80.5678 74.966L73.256 60.3424L73.7483 60.2193V75.0399C73.7483 75.3025 73.6499 75.5322 73.4529 75.7292C73.2724 75.9097 73.0508 76 72.7882 76ZM98.1812 76C97.9186 76 97.6889 75.9097 97.4919 75.7292C97.3114 75.5487 97.2211 75.3189 97.2211 75.0399V57.7328C97.2211 57.4702 97.3114 57.2486 97.4919 57.0681C97.6889 56.8711 97.9186 56.7726 98.1812 56.7726C98.4438 56.7726 98.6654 56.8711 98.846 57.0681C99.0429 57.2486 99.1414 57.4702 99.1414 57.7328V74.1782H108.767C109.03 74.1782 109.252 74.2685 109.432 74.449C109.629 74.6131 109.728 74.8265 109.728 75.0891C109.728 75.3517 109.629 75.5733 109.432 75.7538C109.252 75.9179 109.03 76 108.767 76H98.1812Z" fill="#FFFBEB"/>
<path d="M32.7327 75.7292L34.0807 74.3812L34.0807 74.3812L32.7327 75.7292ZM32.7327 57.0435L34.0807 58.3914L34.0807 58.3914L32.7327 57.0435ZM34.1114 57.0435L35.4593 55.6955L35.4593 55.6955L34.1114 57.0435ZM34.3822 65.4139H32.4758V67.3202H34.3822V65.4139ZM46.3962 65.4139V67.3202H48.3025V65.4139H46.3962ZM46.667 57.0435L48.015 58.3915L48.015 58.3914L46.667 57.0435ZM48.0456 75.7292L49.3936 77.0772L48.0456 75.7292ZM46.667 75.7292L48.015 74.3812L48.015 74.3812L46.667 75.7292ZM46.3962 67.1372H48.3025V65.2309H46.3962V67.1372ZM34.3822 67.1372V65.2309H32.4758V67.1372H34.3822ZM34.1114 75.7292L35.4593 77.0772L35.4593 77.0772L34.1114 75.7292ZM33.422 74.0937C33.4902 74.0937 33.6033 74.1052 33.7375 74.158C33.875 74.212 33.9921 74.2926 34.0807 74.3812L31.3847 77.0772C31.9577 77.6502 32.6891 77.9063 33.422 77.9063V74.0937ZM34.0807 74.3812C34.1693 74.4698 34.2499 74.5869 34.3039 74.7244C34.3566 74.8586 34.3682 74.9717 34.3682 75.0399H30.5555C30.5555 75.7728 30.8117 76.5042 31.3847 77.0772L34.0807 74.3812ZM34.3682 75.0399V57.7328H30.5555V75.0399H34.3682ZM34.3682 57.7328C34.3682 57.801 34.3566 57.9141 34.3039 58.0483C34.2499 58.1858 34.1693 58.3029 34.0807 58.3914L31.3847 55.6955C30.8117 56.2684 30.5555 56.9998 30.5555 57.7328H34.3682ZM34.0807 58.3914C33.9921 58.48 33.875 58.5607 33.7375 58.6147C33.6033 58.6674 33.4902 58.679 33.422 58.679V54.8663C32.6891 54.8663 31.9577 55.1225 31.3847 55.6955L34.0807 58.3914ZM33.422 58.679C33.3538 58.679 33.2407 58.6674 33.1066 58.6147C32.9691 58.5607 32.852 58.48 32.7634 58.3914L35.4593 55.6955C34.8864 55.1225 34.155 54.8663 33.422 54.8663V58.679ZM32.7634 58.3914C32.6748 58.3029 32.5941 58.1857 32.5401 58.0483C32.4874 57.9141 32.4758 57.801 32.4758 57.7328H36.2885C36.2885 56.9998 36.0323 56.2684 35.4593 55.6955L32.7634 58.3914ZM32.4758 57.7328V65.4139H36.2885V57.7328H32.4758ZM34.3822 67.3202H46.3962V63.5075H34.3822V67.3202ZM48.3025 65.4139V57.7328H44.4898V65.4139H48.3025ZM48.3025 57.7328C48.3025 57.801 48.2909 57.9141 48.2382 58.0483C48.1842 58.1858 48.1036 58.3029 48.015 58.3915L45.319 55.6955C44.746 56.2684 44.4898 56.9998 44.4898 57.7328H48.3025ZM48.015 58.3914C47.9264 58.48 47.8093 58.5607 47.6718 58.6147C47.5376 58.6674 47.4245 58.679 47.3563 58.679V54.8663C46.6234 54.8663 45.892 55.1225 45.319 55.6955L48.015 58.3914ZM47.3563 58.679C47.2881 58.679 47.175 58.6674 47.0409 58.6147C46.9034 58.5607 46.7862 58.48 46.6977 58.3914L49.3936 55.6955C48.8207 55.1225 48.0893 54.8663 47.3563 54.8663V58.679ZM46.6977 58.3914C46.6091 58.3029 46.5284 58.1857 46.4744 58.0483C46.4217 57.9141 46.4101 57.801 46.4101 57.7328H50.2228C50.2228 56.9998 49.9666 56.2684 49.3936 55.6955L46.6977 58.3914ZM46.4101 57.7328V75.0399H50.2228V57.7328H46.4101ZM46.4101 75.0399C46.4101 74.9717 46.4217 74.8586 46.4744 74.7244C46.5284 74.5869 46.6091 74.4698 46.6977 74.3812L49.3936 77.0772C49.9666 76.5042 50.2228 75.7728 50.2228 75.0399H46.4101ZM46.6977 74.3812C46.7862 74.2926 46.9034 74.212 47.0408 74.158C47.175 74.1052 47.2881 74.0937 47.3563 74.0937V77.9063C48.0893 77.9063 48.8207 77.6502 49.3936 77.0772L46.6977 74.3812ZM47.3563 74.0937C47.4245 74.0937 47.5376 74.1052 47.6718 74.158C47.8093 74.212 47.9264 74.2926 48.015 74.3812L45.319 77.0772C45.892 77.6502 46.6234 77.9063 47.3563 77.9063V74.0937ZM48.015 74.3812C48.1036 74.4698 48.1842 74.5869 48.2382 74.7244C48.2909 74.8586 48.3025 74.9717 48.3025 75.0399H44.4898C44.4898 75.7728 44.746 76.5042 45.319 77.0772L48.015 74.3812ZM48.3025 75.0399V67.1372H44.4898V75.0399H48.3025ZM46.3962 65.2309H34.3822V69.0435H46.3962V65.2309ZM32.4758 67.1372V75.0399H36.2885V67.1372H32.4758ZM32.4758 75.0399C32.4758 74.9717 32.4874 74.8586 32.5401 74.7244C32.5941 74.5869 32.6748 74.4698 32.7634 74.3812L35.4593 77.0772C36.0323 76.5042 36.2885 75.7728 36.2885 75.0399H32.4758ZM32.7634 74.3812C32.852 74.2926 32.9691 74.212 33.1066 74.158C33.2407 74.1052 33.3538 74.0937 33.422 74.0937V77.9063C34.155 77.9063 34.8864 77.6502 35.4593 77.0772L32.7634 74.3812ZM59.3642 75.7292L57.9589 77.0174L58.0149 77.0785L58.076 77.1345L59.3642 75.7292ZM59.0934 56.7726V54.8663H57.187V56.7726H59.0934ZM61.0136 56.7726H62.92V54.8663H61.0136V56.7726ZM60.7428 75.7292L62.0908 77.0772L62.1201 77.0479L62.1481 77.0174L60.7428 75.7292ZM67.513 57.0188L68.861 55.6708L68.861 55.6708L67.513 57.0188ZM67.513 58.2744L68.861 59.6224L68.861 59.6224L67.513 58.2744ZM60.0535 74.0937C60.1454 74.0937 60.2603 74.1104 60.3813 74.158C60.5018 74.2053 60.5924 74.269 60.6523 74.3239L58.076 77.1345C58.6178 77.6311 59.3048 77.9063 60.0535 77.9063V74.0937ZM60.7695 74.441C60.8244 74.501 60.8881 74.5916 60.9354 74.7121C60.983 74.8331 60.9997 74.948 60.9997 75.0399H57.187C57.187 75.7885 57.4623 76.4756 57.9589 77.0174L60.7695 74.441ZM60.9997 75.0399V56.7726H57.187V75.0399H60.9997ZM59.0934 58.679H61.0136V54.8663H59.0934V58.679ZM59.1073 56.7726V75.0399H62.92V56.7726H59.1073ZM59.1073 75.0399C59.1073 74.948 59.1241 74.8331 59.1716 74.7121C59.2189 74.5916 59.2826 74.501 59.3376 74.441L62.1481 77.0174C62.6447 76.4756 62.92 75.7885 62.92 75.0399H59.1073ZM59.3948 74.3812C59.4834 74.2926 59.6005 74.212 59.738 74.158C59.8722 74.1052 59.9853 74.0937 60.0535 74.0937V77.9063C60.7865 77.9063 61.5178 77.6502 62.0908 77.0772L59.3948 74.3812ZM53.2587 56.6142C53.327 56.6142 53.4444 56.6253 53.5861 56.6798C53.7322 56.736 53.863 56.8228 53.9666 56.9264L51.2706 59.6224C51.8404 60.1921 52.5629 60.4269 53.2587 60.4269V56.6142ZM53.9666 56.9264C54.0577 57.0175 54.1443 57.1403 54.204 57.2894C54.2627 57.4364 54.2788 57.5671 54.2788 57.6589H50.4661C50.4661 58.3767 50.7256 59.0774 51.2706 59.6224L53.9666 56.9264ZM54.2788 57.6589C54.2788 57.7272 54.2677 57.8447 54.2132 57.9863C54.157 58.1325 54.0702 58.2633 53.9666 58.3668L51.2706 55.6708C50.7009 56.2406 50.4661 56.9631 50.4661 57.6589H54.2788ZM53.9666 58.3668C53.863 58.4704 53.7322 58.5573 53.5861 58.6135C53.4444 58.668 53.327 58.679 53.2587 58.679V54.8663C52.5629 54.8663 51.8404 55.1011 51.2706 55.6708L53.9666 58.3668ZM53.2587 58.679H66.8729V54.8663H53.2587V58.679ZM66.8729 58.679C66.8046 58.679 66.6872 58.668 66.5456 58.6135C66.3994 58.5573 66.2686 58.4704 66.165 58.3668L68.861 55.6708C68.2913 55.1011 67.5688 54.8663 66.8729 54.8663V58.679ZM66.165 58.3668C66.0615 58.2633 65.9746 58.1325 65.9184 57.9863C65.8639 57.8447 65.8529 57.7272 65.8529 57.6589H69.6656C69.6656 56.9631 69.4308 56.2406 68.861 55.6708L66.165 58.3668ZM65.8529 57.6589C65.8529 57.5671 65.8689 57.4364 65.9277 57.2894C65.9873 57.1403 66.0739 57.0175 66.165 56.9264L68.861 59.6224C69.406 59.0774 69.6656 58.3767 69.6656 57.6589H65.8529ZM66.165 56.9264C66.2686 56.8228 66.3994 56.736 66.5456 56.6798C66.6872 56.6253 66.8046 56.6142 66.8729 56.6142V60.4269C67.5688 60.4269 68.2913 60.1921 68.861 59.6224L66.165 56.9264ZM66.8729 56.6142H53.2587V60.4269H66.8729V56.6142ZM72.0989 75.7292L70.6936 77.0174L70.7496 77.0785L70.8107 77.1345L72.0989 75.7292ZM72.0989 57.0435L70.8107 55.6382L70.7802 55.6662L70.7509 55.6955L72.0989 57.0435ZM73.6499 57.265L75.3529 56.4084L75.3372 56.3771L75.3202 56.3463L73.6499 57.265ZM81.9464 73.7597V75.666H85.0392L83.6495 72.9031L81.9464 73.7597ZM81.1094 73.7597L79.4002 72.9153L78.0413 75.666H81.1094V73.7597ZM89.2582 57.265L87.6236 56.2842L87.5835 56.3509L87.5491 56.4207L89.2582 57.265ZM90.7846 57.0435L92.1326 55.6955L92.1326 55.6955L90.7846 57.0435ZM90.7846 75.7292L92.1326 77.0772L92.1619 77.0479L92.1899 77.0174L90.7846 75.7292ZM89.406 75.7292L88.0007 77.0174L88.0567 77.0785L88.1178 77.1345L89.406 75.7292ZM89.1351 60.2193L89.2471 58.3162L87.2288 58.1975V60.2193H89.1351ZM89.5537 60.2439L91.2661 61.0817L92.5247 58.509L89.6656 58.3409L89.5537 60.2439ZM82.2911 75.0891L83.9409 76.0443L83.9743 75.9866L84.0035 75.9268L82.2911 75.0891ZM80.5678 74.966L82.3008 74.1717L82.2873 74.1424L82.2729 74.1135L80.5678 74.966ZM73.256 60.3424L72.7936 58.493L70.4881 59.0693L71.5509 61.1949L73.256 60.3424ZM73.7483 60.2193H75.6547V57.7777L73.286 58.3699L73.7483 60.2193ZM73.4529 75.7292L74.8009 77.0772L73.4529 75.7292ZM72.7882 74.0937C72.8801 74.0937 72.995 74.1104 73.116 74.158C73.2365 74.2053 73.3271 74.269 73.387 74.3239L70.8107 77.1345C71.3525 77.6311 72.0395 77.9063 72.7882 77.9063V74.0937ZM73.5042 74.441C73.5591 74.501 73.6228 74.5916 73.6701 74.7121C73.7177 74.8331 73.7344 74.948 73.7344 75.0399H69.9217C69.9217 75.7885 70.197 76.4756 70.6936 77.0174L73.5042 74.441ZM73.7344 75.0399V57.7328H69.9217V75.0399H73.7344ZM73.7344 57.7328C73.7344 57.801 73.7228 57.9141 73.6701 58.0483C73.6161 58.1858 73.5355 58.3029 73.4469 58.3914L70.7509 55.6955C70.1779 56.2684 69.9217 56.9998 69.9217 57.7328H73.7344ZM73.387 58.4487C73.3271 58.5037 73.2365 58.5674 73.116 58.6147C72.995 58.6622 72.8801 58.679 72.7882 58.679V54.8663C72.0395 54.8663 71.3525 55.1416 70.8107 55.6382L73.387 58.4487ZM72.7882 58.679C72.7168 58.679 72.5482 58.6623 72.3532 58.5509C72.1533 58.4367 72.0354 58.2854 71.9795 58.1837L75.3202 56.3463C75.0838 55.9164 74.732 55.5189 74.2449 55.2406C73.7627 54.9651 73.2535 54.8663 72.7882 54.8663V58.679ZM71.9468 58.1216L80.2434 74.6163L83.6495 72.9031L75.3529 56.4084L71.9468 58.1216ZM81.9464 71.8533H81.1094V75.666H81.9464V71.8533ZM82.8185 74.6041L90.9674 58.1094L87.5491 56.4207L79.4002 72.9153L82.8185 74.6041ZM90.8929 58.2458C90.85 58.3173 90.749 58.447 90.5672 58.5509C90.3841 58.6555 90.2154 58.679 90.1199 58.679V54.8663C89.0613 54.8663 88.1591 55.3917 87.6236 56.2842L90.8929 58.2458ZM90.1199 58.679C90.0288 58.679 89.9027 58.6624 89.7638 58.6058C89.6238 58.5488 89.5138 58.4686 89.4366 58.3915L92.1326 55.6955C91.5833 55.1462 90.872 54.8663 90.1199 54.8663V58.679ZM89.4366 58.3914C89.348 58.3029 89.2674 58.1857 89.2134 58.0483C89.1607 57.9141 89.1491 57.801 89.1491 57.7328H92.9618C92.9618 56.9998 92.7056 56.2684 92.1326 55.6955L89.4366 58.3914ZM89.1491 57.7328V75.0399H92.9618V57.7328H89.1491ZM89.1491 75.0399C89.1491 74.948 89.1658 74.8331 89.2134 74.7121C89.2607 74.5916 89.3244 74.501 89.3793 74.441L92.1899 77.0174C92.6865 76.4756 92.9618 75.7885 92.9618 75.0399H89.1491ZM89.4366 74.3812C89.5138 74.304 89.6238 74.2239 89.7638 74.1668C89.9027 74.1102 90.0287 74.0937 90.1199 74.0937V77.9063C90.872 77.9063 91.5833 77.6265 92.1326 77.0772L89.4366 74.3812ZM90.1199 74.0937C90.1892 74.0937 90.2914 74.1055 90.4082 74.1499C90.5265 74.1947 90.6233 74.259 90.6941 74.3239L88.1178 77.1345C88.6831 77.6527 89.3872 77.9063 90.1199 77.9063V74.0937ZM90.8112 74.441C90.8662 74.501 90.9299 74.5916 90.9772 74.7121C91.0247 74.8331 91.0415 74.948 91.0415 75.0399H87.2288C87.2288 75.7885 87.5041 76.4756 88.0007 77.0174L90.8112 74.441ZM91.0415 75.0399V60.2193H87.2288V75.0399H91.0415ZM89.0232 62.1224L89.4417 62.147L89.6656 58.3409L89.2471 58.3162L89.0232 62.1224ZM87.8413 59.4062L80.5787 74.2514L84.0035 75.9268L91.2661 61.0817L87.8413 59.4062ZM80.6413 74.1339C80.7005 74.0317 80.8199 73.8856 81.0165 73.7758C81.2087 73.6684 81.3763 73.6505 81.4541 73.6505V77.4632C82.472 77.4632 83.4 76.9785 83.9409 76.0443L80.6413 74.1339ZM81.4541 73.6505C81.5651 73.6505 81.7702 73.6816 81.9822 73.823C82.1876 73.9599 82.2762 74.1181 82.3008 74.1717L78.8348 75.7603C79.0399 76.2078 79.3665 76.6614 79.8673 76.9953C80.3747 77.3336 80.9327 77.4632 81.4541 77.4632V73.6505ZM82.2729 74.1135L74.9611 59.4898L71.5509 61.1949L78.8627 75.8186L82.2729 74.1135ZM73.7183 62.1918L74.2107 62.0687L73.286 58.3699L72.7936 58.493L73.7183 62.1918ZM71.842 60.2193V75.0399H75.6547V60.2193H71.842ZM71.842 75.0399C71.842 74.9263 71.8647 74.7925 71.9223 74.6582C71.9789 74.5261 72.0515 74.4347 72.1049 74.3812L74.8009 77.0772C75.3313 76.5468 75.6547 75.8411 75.6547 75.0399H71.842ZM72.1049 74.3812C72.1821 74.304 72.2921 74.2239 72.4321 74.1668C72.571 74.1102 72.6971 74.0937 72.7882 74.0937V77.9063C73.5403 77.9063 74.2516 77.6265 74.8009 77.0772L72.1049 74.3812ZM97.4919 75.7292L96.1439 77.0772L96.1732 77.1065L96.2037 77.1345L97.4919 75.7292ZM97.4919 57.0681L96.1439 55.7201V55.7201L97.4919 57.0681ZM98.846 57.0681L97.4407 58.3562L97.4967 58.4173L97.5578 58.4733L98.846 57.0681ZM99.1414 74.1782H97.235V76.0846H99.1414V74.1782ZM109.432 74.449L108.084 75.797L108.145 75.8581L108.212 75.9135L109.432 74.449ZM109.432 75.7538L110.714 77.1644L110.72 77.1591L109.432 75.7538ZM98.1812 74.0937C98.2731 74.0937 98.388 74.1104 98.509 74.158C98.6295 74.2053 98.7201 74.269 98.7801 74.3239L96.2037 77.1345C96.7455 77.6311 97.4326 77.9063 98.1812 77.9063V74.0937ZM98.8399 74.3812C98.9285 74.4698 99.0091 74.5869 99.0631 74.7244C99.1159 74.8586 99.1275 74.9717 99.1275 75.0399H95.3148C95.3148 75.7728 95.5709 76.5042 96.1439 77.0772L98.8399 74.3812ZM99.1275 75.0399V57.7328H95.3148V75.0399H99.1275ZM99.1275 57.7328C99.1275 57.8239 99.1109 57.95 99.0543 58.0889C98.9972 58.2289 98.9171 58.3389 98.8399 58.4161L96.1439 55.7201C95.5946 56.2694 95.3148 56.9807 95.3148 57.7328H99.1275ZM98.8399 58.4161C98.7864 58.4695 98.695 58.5421 98.5629 58.5987C98.4286 58.6563 98.2948 58.679 98.1812 58.679V54.8663C97.38 54.8663 96.6743 55.1897 96.1439 55.7201L98.8399 58.4161ZM98.1812 58.679C98.0682 58.679 97.9228 58.6564 97.7701 58.5885C97.6183 58.521 97.5092 58.431 97.4407 58.3562L100.251 55.7799C99.7168 55.1969 98.9887 54.8663 98.1812 54.8663V58.679ZM97.5578 58.4733C97.483 58.4048 97.393 58.2958 97.3255 58.1439C97.2576 57.9913 97.235 57.8458 97.235 57.7328H101.048C101.048 56.9253 100.717 56.1973 100.134 55.6628L97.5578 58.4733ZM97.235 57.7328V74.1782H101.048V57.7328H97.235ZM99.1414 76.0846H108.767V72.2719H99.1414V76.0846ZM108.767 76.0846C108.676 76.0846 108.55 76.068 108.411 76.0114C108.271 75.9543 108.161 75.8742 108.084 75.797L110.78 73.101C110.231 72.5517 109.519 72.2719 108.767 72.2719V76.0846ZM108.212 75.9135C108.113 75.8311 108.003 75.7041 107.923 75.531C107.843 75.3592 107.821 75.2011 107.821 75.0891H111.634C111.634 74.2766 111.296 73.5209 110.652 72.9845L108.212 75.9135ZM107.821 75.0891C107.821 74.9761 107.844 74.8306 107.912 74.678C107.979 74.5261 108.069 74.4171 108.144 74.3485L110.72 77.1591C111.303 76.6246 111.634 75.8966 111.634 75.0891H107.821ZM108.15 74.3432C108.234 74.2665 108.343 74.1973 108.468 74.1508C108.592 74.1051 108.698 74.0937 108.767 74.0937V77.9063C109.465 77.9063 110.155 77.6731 110.714 77.1644L108.15 74.3432ZM108.767 74.0937H98.1812V77.9063H108.767V74.0937Z" fill="#FFFBEB" mask="url(#path-6-outside-1_4_830)"/>
</g>
</g>
<defs>
<filter id="filter0_d_4_830" x="0.510923" y="0.151824" width="138.049" height="138.049" filterUnits="userSpaceOnUse" color-interpolation-filters="sRGB">
<feFlood flood-opacity="0" result="BackgroundImageFix"/>
<feColorMatrix in="SourceAlpha" type="matrix" values="0 0 0 0 0 0 0 0 0 0 0 0 0 0 0 0 0 0 127 0" result="hardAlpha"/>
<feOffset dy="1.81644"/>
<feGaussianBlur stdDeviation="1.81644"/>
<feComposite in2="hardAlpha" operator="out"/>
<feColorMatrix type="matrix" values="0 0 0 0 0 0 0 0 0 0 0 0 0 0 0 0 0 0 0.08 0"/>
<feBlend mode="normal" in2="BackgroundImageFix" result="effect1_dropShadow_4_830"/>
<feBlend mode="normal" in="SourceGraphic" in2="effect1_dropShadow_4_830" result="shape"/>
</filter>
<filter id="filter1_f_4_830" x="18.1072" y="15.1072" width="103.786" height="103.786" filterUnits="userSpaceOnUse" color-interpolation-filters="sRGB">
<feFlood flood-opacity="0" result="BackgroundImageFix"/>
<feBlend mode="normal" in="SourceGraphic" in2="BackgroundImageFix" result="shape"/>
<feGaussianBlur stdDeviation="1" result="effect1_foregroundBlur_4_830"/>
</filter>
<filter id="filter2_d_4_830" x="27.4619" y="53.7726" width="87.2656" height="29.2274" filterUnits="userSpaceOnUse" color-interpolation-filters="sRGB">
<feFlood flood-opacity="0" result="BackgroundImageFix"/>
<feColorMatrix in="SourceAlpha" type="matrix" values="0 0 0 0 0 0 0 0 0 0 0 0 0 0 0 0 0 0 127 0" result="hardAlpha"/>
<feOffset dy="2"/>
<feGaussianBlur stdDeviation="2.5"/>
<feComposite in2="hardAlpha" operator="out"/>
<feColorMatrix type="matrix" values="0 0 0 0 0 0 0 0 0 0 0 0 0 0 0 0 0 0 0.08 0"/>
<feBlend mode="normal" in2="BackgroundImageFix" result="effect1_dropShadow_4_830"/>
<feBlend mode="normal" in="SourceGraphic" in2="effect1_dropShadow_4_830" result="shape"/>
</filter>
<linearGradient id="paint0_linear_4_830" x1="70" y1="18.1072" x2="46.086" y2="74.4315" gradientUnits="userSpaceOnUse">
<stop stop-color="white"/>
<stop offset="1" stop-color="white" stop-opacity="0"/>
</linearGradient>
</defs>
</svg>
