<svg width="139" height="139" viewBox="0 0 139 139" fill="none" xmlns="http://www.w3.org/2000/svg">
<g filter="url(#filter0_d_4_825)">
<rect x="4.29724" y="1.9682" width="130.784" height="130.784" rx="65.3918" fill="white" shape-rendering="crispEdges"/>
<rect x="4.75135" y="2.42231" width="129.875" height="129.875" rx="64.9376" stroke="#F3F4F6" stroke-width="0.908219" shape-rendering="crispEdges"/>
<g clip-path="url(#clip0_4_825)">
<rect x="11.563" y="9.23395" width="116.252" height="116.252" rx="58.126" fill="#E5E7EB"/>
<rect x="12" y="9" width="116" height="116" rx="58" fill="url(#paint0_linear_4_825)"/>
<g filter="url(#filter1_f_4_825)">
<rect x="21.1072" y="18.1072" width="97.7856" height="97.7856" rx="48.8928" stroke="url(#paint1_linear_4_825)" stroke-opacity="0.5" stroke-width="2" stroke-linecap="round" stroke-linejoin="round" stroke-dasharray="6 6"/>
</g>
<g filter="url(#filter2_d_4_825)">
<mask id="path-6-outside-1_4_825" maskUnits="userSpaceOnUse" x="37" y="54" width="65" height="28" fill="black">
<rect fill="white" x="37" y="54" width="65" height="28"/>
<path d="M51.0489 79.2893C49.4865 79.2893 48.0206 78.9904 46.6511 78.3924C45.3008 77.7944 44.1049 76.965 43.0633 75.9041C42.041 74.824 41.2405 73.5895 40.6619 72.2007C40.0832 70.7926 39.7939 69.288 39.7939 67.6871C39.7939 66.1054 40.0736 64.6201 40.6329 63.2313C41.2116 61.8232 42.0121 60.5888 43.0344 59.5279C44.076 58.467 45.2719 57.6376 46.6221 57.0396C47.9916 56.4224 49.4672 56.1137 51.0489 56.1137C52.4377 56.1137 53.7012 56.3163 54.8392 56.7213C55.9772 57.1264 57.0767 57.7726 58.1376 58.6599C58.3112 58.7949 58.4076 58.9589 58.4269 59.1517C58.4655 59.3253 58.4462 59.4989 58.3691 59.6725C58.2919 59.8269 58.1762 59.9426 58.0219 60.0197C57.9833 60.1741 57.8868 60.2898 57.7325 60.3669C57.5782 60.4441 57.395 60.473 57.1828 60.4537C56.9899 60.4345 56.797 60.3477 56.6041 60.1933C55.8519 59.5375 55.0321 59.0553 54.1448 58.7467C53.2575 58.4188 52.2256 58.2548 51.0489 58.2548C49.7952 58.2548 48.6185 58.5056 47.5191 59.0071C46.4389 59.5086 45.4841 60.1933 44.6547 61.0613C43.8252 61.9293 43.1694 62.9324 42.6872 64.0704C42.2243 65.2084 41.9928 66.414 41.9928 67.6871C41.9928 68.9987 42.2243 70.2236 42.6872 71.3616C43.1694 72.4996 43.8252 73.5027 44.6547 74.3707C45.4841 75.2387 46.4389 75.9234 47.5191 76.4249C48.6185 76.9072 49.7952 77.1483 51.0489 77.1483C52.1098 77.1483 53.1128 76.9747 54.058 76.6275C55.0032 76.2803 55.9001 75.7788 56.7488 75.1229C56.9803 74.93 57.2214 74.8529 57.4721 74.8915C57.7422 74.93 57.9736 75.0458 58.1665 75.2387C58.3594 75.4316 58.4559 75.6823 58.4559 75.9909C58.4559 76.1452 58.4269 76.2899 58.3691 76.4249C58.3305 76.5407 58.2533 76.666 58.1376 76.8011C57.1539 77.7076 56.0544 78.3538 54.8392 78.7396C53.624 79.1061 52.3606 79.2893 51.0489 79.2893ZM71.4926 79.2893C70.2581 79.2893 69.1104 79.1157 68.0495 78.7685C67.0079 78.402 66.1013 77.8909 65.3298 77.2351C64.5582 76.5792 63.9699 75.8173 63.5649 74.9493C63.4105 74.6407 63.4009 74.361 63.5359 74.1103C63.6902 73.8402 63.941 73.657 64.2882 73.5605C64.5582 73.4834 64.8186 73.5123 65.0694 73.6473C65.3394 73.7824 65.542 73.9849 65.677 74.2549C65.9663 74.8143 66.3907 75.3158 66.9501 75.7595C67.5094 76.2031 68.1749 76.5503 68.9464 76.8011C69.718 77.0325 70.5667 77.1483 71.4926 77.1483C72.5149 77.1483 73.4215 76.9843 74.2123 76.6564C75.0032 76.3092 75.6204 75.8173 76.064 75.1808C76.527 74.525 76.7584 73.7341 76.7584 72.8083C76.7584 71.6316 76.3244 70.619 75.4564 69.7703C74.5884 68.9216 73.2286 68.3815 71.3768 68.15C69.1201 67.88 67.3551 67.1856 66.0821 66.0668C64.809 64.9288 64.1725 63.54 64.1725 61.9004C64.1725 60.7238 64.4811 59.7015 65.0983 58.8335C65.7349 57.9655 66.6029 57.3 67.7023 56.8371C68.8018 56.3549 70.0652 56.1137 71.4926 56.1137C72.5535 56.1137 73.5179 56.2873 74.3859 56.6345C75.2539 56.9625 76.0062 57.4061 76.6427 57.9655C77.2985 58.5056 77.829 59.1035 78.234 59.7593C78.4269 60.068 78.4848 60.3669 78.4076 60.6563C78.3498 60.9456 78.1858 61.1674 77.9158 61.3217C77.6264 61.4568 77.3275 61.476 77.0188 61.3796C76.7295 61.2832 76.5077 61.0999 76.3534 60.8299C76.064 60.3862 75.6976 59.9715 75.2539 59.5857C74.8296 59.1807 74.3088 58.8624 73.6915 58.6309C73.0743 58.3995 72.3316 58.2741 71.4636 58.2548C69.9398 58.2548 68.715 58.5827 67.7891 59.2385C66.8633 59.8751 66.4003 60.8106 66.4003 62.0451C66.4003 62.7009 66.5739 63.3085 66.9211 63.8679C67.2683 64.408 67.8373 64.8805 68.6282 65.2856C69.4383 65.6714 70.5185 65.9607 71.8687 66.1536C74.2798 66.5008 76.064 67.2434 77.2214 68.3815C78.398 69.5002 78.9863 70.9662 78.9863 72.7793C78.9863 73.8209 78.7934 74.7468 78.4076 75.5569C78.0412 76.3671 77.5107 77.0518 76.8163 77.6112C76.1412 78.1513 75.3407 78.566 74.4148 78.8553C73.5083 79.1447 72.5342 79.2893 71.4926 79.2893ZM92.0963 79.2893C90.8618 79.2893 89.7141 79.1157 88.6532 78.7685C87.6116 78.402 86.705 77.8909 85.9335 77.2351C85.1619 76.5792 84.5736 75.8173 84.1685 74.9493C84.0142 74.6407 84.0046 74.361 84.1396 74.1103C84.2939 73.8402 84.5447 73.657 84.8919 73.5605C85.1619 73.4834 85.4223 73.5123 85.6731 73.6473C85.9431 73.7824 86.1457 73.9849 86.2807 74.2549C86.57 74.8143 86.9944 75.3158 87.5537 75.7595C88.1131 76.2031 88.7786 76.5503 89.5501 76.8011C90.3217 77.0325 91.1704 77.1483 92.0963 77.1483C93.1186 77.1483 94.0252 76.9843 94.816 76.6564C95.6068 76.3092 96.2241 75.8173 96.6677 75.1808C97.1307 74.525 97.3621 73.7341 97.3621 72.8083C97.3621 71.6316 96.9281 70.619 96.0601 69.7703C95.1921 68.9216 93.8323 68.3815 91.9805 68.15C89.7237 67.88 87.9588 67.1856 86.6857 66.0668C85.4127 64.9288 84.7761 63.54 84.7761 61.9004C84.7761 60.7238 85.0848 59.7015 85.702 58.8335C86.3385 57.9655 87.2065 57.3 88.306 56.8371C89.4055 56.3549 90.6689 56.1137 92.0963 56.1137C93.1572 56.1137 94.1216 56.2873 94.9896 56.6345C95.8576 56.9625 96.6099 57.4061 97.2464 57.9655C97.9022 58.5056 98.4327 59.1035 98.8377 59.7593C99.0306 60.068 99.0885 60.3669 99.0113 60.6563C98.9535 60.9456 98.7895 61.1674 98.5195 61.3217C98.2301 61.4568 97.9312 61.476 97.6225 61.3796C97.3332 61.2832 97.1114 61.0999 96.9571 60.8299C96.6677 60.3862 96.3012 59.9715 95.8576 59.5857C95.4332 59.1807 94.9124 58.8624 94.2952 58.6309C93.678 58.3995 92.9353 58.2741 92.0673 58.2548C90.5435 58.2548 89.3187 58.5827 88.3928 59.2385C87.4669 59.8751 87.004 60.8106 87.004 62.0451C87.004 62.7009 87.1776 63.3085 87.5248 63.8679C87.872 64.408 88.441 64.8805 89.2319 65.2856C90.042 65.6714 91.1222 65.9607 92.4724 66.1536C94.8835 66.5008 96.6677 67.2434 97.8251 68.3815C99.0017 69.5002 99.59 70.9662 99.59 72.7793C99.59 73.8209 99.3971 74.7468 99.0113 75.5569C98.6448 76.3671 98.1144 77.0518 97.42 77.6112C96.7449 78.1513 95.9444 78.566 95.0185 78.8553C94.112 79.1447 93.1379 79.2893 92.0963 79.2893Z"/>
</mask>
<path d="M51.0489 79.2893C49.4865 79.2893 48.0206 78.9904 46.6511 78.3924C45.3008 77.7944 44.1049 76.965 43.0633 75.9041C42.041 74.824 41.2405 73.5895 40.6619 72.2007C40.0832 70.7926 39.7939 69.288 39.7939 67.6871C39.7939 66.1054 40.0736 64.6201 40.6329 63.2313C41.2116 61.8232 42.0121 60.5888 43.0344 59.5279C44.076 58.467 45.2719 57.6376 46.6221 57.0396C47.9916 56.4224 49.4672 56.1137 51.0489 56.1137C52.4377 56.1137 53.7012 56.3163 54.8392 56.7213C55.9772 57.1264 57.0767 57.7726 58.1376 58.6599C58.3112 58.7949 58.4076 58.9589 58.4269 59.1517C58.4655 59.3253 58.4462 59.4989 58.3691 59.6725C58.2919 59.8269 58.1762 59.9426 58.0219 60.0197C57.9833 60.1741 57.8868 60.2898 57.7325 60.3669C57.5782 60.4441 57.395 60.473 57.1828 60.4537C56.9899 60.4345 56.797 60.3477 56.6041 60.1933C55.8519 59.5375 55.0321 59.0553 54.1448 58.7467C53.2575 58.4188 52.2256 58.2548 51.0489 58.2548C49.7952 58.2548 48.6185 58.5056 47.5191 59.0071C46.4389 59.5086 45.4841 60.1933 44.6547 61.0613C43.8252 61.9293 43.1694 62.9324 42.6872 64.0704C42.2243 65.2084 41.9928 66.414 41.9928 67.6871C41.9928 68.9987 42.2243 70.2236 42.6872 71.3616C43.1694 72.4996 43.8252 73.5027 44.6547 74.3707C45.4841 75.2387 46.4389 75.9234 47.5191 76.4249C48.6185 76.9072 49.7952 77.1483 51.0489 77.1483C52.1098 77.1483 53.1128 76.9747 54.058 76.6275C55.0032 76.2803 55.9001 75.7788 56.7488 75.1229C56.9803 74.93 57.2214 74.8529 57.4721 74.8915C57.7422 74.93 57.9736 75.0458 58.1665 75.2387C58.3594 75.4316 58.4559 75.6823 58.4559 75.9909C58.4559 76.1452 58.4269 76.2899 58.3691 76.4249C58.3305 76.5407 58.2533 76.666 58.1376 76.8011C57.1539 77.7076 56.0544 78.3538 54.8392 78.7396C53.624 79.1061 52.3606 79.2893 51.0489 79.2893ZM71.4926 79.2893C70.2581 79.2893 69.1104 79.1157 68.0495 78.7685C67.0079 78.402 66.1013 77.8909 65.3298 77.2351C64.5582 76.5792 63.9699 75.8173 63.5649 74.9493C63.4105 74.6407 63.4009 74.361 63.5359 74.1103C63.6902 73.8402 63.941 73.657 64.2882 73.5605C64.5582 73.4834 64.8186 73.5123 65.0694 73.6473C65.3394 73.7824 65.542 73.9849 65.677 74.2549C65.9663 74.8143 66.3907 75.3158 66.9501 75.7595C67.5094 76.2031 68.1749 76.5503 68.9464 76.8011C69.718 77.0325 70.5667 77.1483 71.4926 77.1483C72.5149 77.1483 73.4215 76.9843 74.2123 76.6564C75.0032 76.3092 75.6204 75.8173 76.064 75.1808C76.527 74.525 76.7584 73.7341 76.7584 72.8083C76.7584 71.6316 76.3244 70.619 75.4564 69.7703C74.5884 68.9216 73.2286 68.3815 71.3768 68.15C69.1201 67.88 67.3551 67.1856 66.0821 66.0668C64.809 64.9288 64.1725 63.54 64.1725 61.9004C64.1725 60.7238 64.4811 59.7015 65.0983 58.8335C65.7349 57.9655 66.6029 57.3 67.7023 56.8371C68.8018 56.3549 70.0652 56.1137 71.4926 56.1137C72.5535 56.1137 73.5179 56.2873 74.3859 56.6345C75.2539 56.9625 76.0062 57.4061 76.6427 57.9655C77.2985 58.5056 77.829 59.1035 78.234 59.7593C78.4269 60.068 78.4848 60.3669 78.4076 60.6563C78.3498 60.9456 78.1858 61.1674 77.9158 61.3217C77.6264 61.4568 77.3275 61.476 77.0188 61.3796C76.7295 61.2832 76.5077 61.0999 76.3534 60.8299C76.064 60.3862 75.6976 59.9715 75.2539 59.5857C74.8296 59.1807 74.3088 58.8624 73.6915 58.6309C73.0743 58.3995 72.3316 58.2741 71.4636 58.2548C69.9398 58.2548 68.715 58.5827 67.7891 59.2385C66.8633 59.8751 66.4003 60.8106 66.4003 62.0451C66.4003 62.7009 66.5739 63.3085 66.9211 63.8679C67.2683 64.408 67.8373 64.8805 68.6282 65.2856C69.4383 65.6714 70.5185 65.9607 71.8687 66.1536C74.2798 66.5008 76.064 67.2434 77.2214 68.3815C78.398 69.5002 78.9863 70.9662 78.9863 72.7793C78.9863 73.8209 78.7934 74.7468 78.4076 75.5569C78.0412 76.3671 77.5107 77.0518 76.8163 77.6112C76.1412 78.1513 75.3407 78.566 74.4148 78.8553C73.5083 79.1447 72.5342 79.2893 71.4926 79.2893ZM92.0963 79.2893C90.8618 79.2893 89.7141 79.1157 88.6532 78.7685C87.6116 78.402 86.705 77.8909 85.9335 77.2351C85.1619 76.5792 84.5736 75.8173 84.1685 74.9493C84.0142 74.6407 84.0046 74.361 84.1396 74.1103C84.2939 73.8402 84.5447 73.657 84.8919 73.5605C85.1619 73.4834 85.4223 73.5123 85.6731 73.6473C85.9431 73.7824 86.1457 73.9849 86.2807 74.2549C86.57 74.8143 86.9944 75.3158 87.5537 75.7595C88.1131 76.2031 88.7786 76.5503 89.5501 76.8011C90.3217 77.0325 91.1704 77.1483 92.0963 77.1483C93.1186 77.1483 94.0252 76.9843 94.816 76.6564C95.6068 76.3092 96.2241 75.8173 96.6677 75.1808C97.1307 74.525 97.3621 73.7341 97.3621 72.8083C97.3621 71.6316 96.9281 70.619 96.0601 69.7703C95.1921 68.9216 93.8323 68.3815 91.9805 68.15C89.7237 67.88 87.9588 67.1856 86.6857 66.0668C85.4127 64.9288 84.7761 63.54 84.7761 61.9004C84.7761 60.7238 85.0848 59.7015 85.702 58.8335C86.3385 57.9655 87.2065 57.3 88.306 56.8371C89.4055 56.3549 90.6689 56.1137 92.0963 56.1137C93.1572 56.1137 94.1216 56.2873 94.9896 56.6345C95.8576 56.9625 96.6099 57.4061 97.2464 57.9655C97.9022 58.5056 98.4327 59.1035 98.8377 59.7593C99.0306 60.068 99.0885 60.3669 99.0113 60.6563C98.9535 60.9456 98.7895 61.1674 98.5195 61.3217C98.2301 61.4568 97.9312 61.476 97.6225 61.3796C97.3332 61.2832 97.1114 61.0999 96.9571 60.8299C96.6677 60.3862 96.3012 59.9715 95.8576 59.5857C95.4332 59.1807 94.9124 58.8624 94.2952 58.6309C93.678 58.3995 92.9353 58.2741 92.0673 58.2548C90.5435 58.2548 89.3187 58.5827 88.3928 59.2385C87.4669 59.8751 87.004 60.8106 87.004 62.0451C87.004 62.7009 87.1776 63.3085 87.5248 63.8679C87.872 64.408 88.441 64.8805 89.2319 65.2856C90.042 65.6714 91.1222 65.9607 92.4724 66.1536C94.8835 66.5008 96.6677 67.2434 97.8251 68.3815C99.0017 69.5002 99.59 70.9662 99.59 72.7793C99.59 73.8209 99.3971 74.7468 99.0113 75.5569C98.6448 76.3671 98.1144 77.0518 97.42 77.6112C96.7449 78.1513 95.9444 78.566 95.0185 78.8553C94.112 79.1447 93.1379 79.2893 92.0963 79.2893Z" fill="#FFFBEB"/>
<path d="M46.6511 78.3924L45.8791 80.1355L45.8883 80.1395L46.6511 78.3924ZM43.0633 75.9041L41.6788 77.2145L41.6908 77.2272L41.703 77.2397L43.0633 75.9041ZM40.6619 72.2007L38.8986 72.9253L38.9022 72.9339L40.6619 72.2007ZM40.6329 63.2313L38.8696 62.5067L38.8646 62.5191L40.6329 63.2313ZM43.0344 59.5279L41.6741 58.1923L41.6679 58.1987L41.6617 58.2051L43.0344 59.5279ZM46.6221 57.0396L47.3941 58.7827L47.4054 58.7776L46.6221 57.0396ZM54.8392 56.7213L55.4784 54.9254L55.4784 54.9254L54.8392 56.7213ZM58.1376 58.6599L56.9146 60.1222L56.9405 60.1439L56.9672 60.1647L58.1376 58.6599ZM58.4269 59.1517L56.53 59.3414L56.5413 59.4544L56.566 59.5653L58.4269 59.1517ZM58.3691 59.6725L60.0742 60.5251L60.0935 60.4863L60.1111 60.4468L58.3691 59.6725ZM58.0219 60.0197L57.1693 58.3146L56.3851 58.7068L56.1724 59.5574L58.0219 60.0197ZM57.7325 60.3669L56.88 58.6618L56.88 58.6618L57.7325 60.3669ZM57.1828 60.4537L56.9931 62.3506L57.0017 62.3515L57.0102 62.3523L57.1828 60.4537ZM56.6041 60.1933L55.3514 61.6303L55.3818 61.6568L55.4132 61.6819L56.6041 60.1933ZM54.1448 58.7467L53.484 60.5348L53.5012 60.5412L53.5185 60.5472L54.1448 58.7467ZM47.5191 59.0071L46.7279 57.2726L46.7163 57.278L47.5191 59.0071ZM44.6547 61.0613L46.0329 62.3784L46.0329 62.3784L44.6547 61.0613ZM42.6872 64.0704L40.9319 63.3266L40.9265 63.3393L40.9214 63.3521L42.6872 64.0704ZM42.6872 71.3616L40.9214 72.0799L40.9265 72.0927L40.9319 72.1054L42.6872 71.3616ZM44.6547 74.3707L46.0329 73.0537L46.0329 73.0537L44.6547 74.3707ZM47.5191 76.4249L46.7163 78.154L46.7347 78.1626L46.7534 78.1707L47.5191 76.4249ZM54.058 76.6275L53.4007 74.838L53.4007 74.838L54.058 76.6275ZM56.7488 75.1229L57.9144 76.6314L57.9422 76.6099L57.9692 76.5874L56.7488 75.1229ZM57.4721 74.8915L57.1823 76.7756L57.1924 76.7772L57.2025 76.7787L57.4721 74.8915ZM58.1665 75.2387L59.5145 73.8907L59.5145 73.8907L58.1665 75.2387ZM58.3691 76.4249L56.6168 75.674L56.5856 75.7469L56.5605 75.8221L58.3691 76.4249ZM58.1376 76.8011L59.4295 78.2029L59.512 78.1269L59.585 78.0417L58.1376 76.8011ZM54.8392 78.7396L55.3896 80.5648L55.4029 80.5608L55.416 80.5566L54.8392 78.7396ZM51.0489 77.383C49.7369 77.383 48.5319 77.1335 47.4139 76.6453L45.8883 80.1395C47.5093 80.8473 49.2362 81.1957 51.0489 81.1957V77.383ZM47.423 76.6493C46.2944 76.1495 45.2978 75.4589 44.4236 74.5686L41.703 77.2397C42.9121 78.4712 44.3073 79.4394 45.8791 80.1355L47.423 76.6493ZM44.4479 74.5937C43.5865 73.6836 42.9123 72.6452 42.4216 71.4675L38.9022 72.9339C39.5688 74.5337 40.4955 75.9643 41.6788 77.2145L44.4479 74.5937ZM42.4251 71.476C41.9458 70.3096 41.7002 69.0525 41.7002 67.6871H37.8875C37.8875 69.5236 38.2206 71.2755 38.8986 72.9253L42.4251 71.476ZM41.7002 67.6871C41.7002 66.3355 41.9381 65.0934 42.4012 63.9436L38.8646 62.5191C38.209 64.1469 37.8875 65.8753 37.8875 67.6871H41.7002ZM42.3962 63.956C42.8866 62.7626 43.5571 61.7328 44.4071 60.8507L41.6617 58.2051C40.4671 59.4447 39.5366 60.8839 38.8697 62.5067L42.3962 63.956ZM44.3947 60.8634C45.2688 59.9731 46.2655 59.2825 47.3941 58.7827L45.8502 55.2965C44.2784 55.9926 42.8832 56.9609 41.6741 58.1923L44.3947 60.8634ZM47.4054 58.7776C48.5158 58.2772 49.7227 58.0201 51.0489 58.0201V54.2074C49.2118 54.2074 47.4675 54.5676 45.8388 55.3016L47.4054 58.7776ZM51.0489 58.0201C52.252 58.0201 53.2953 58.1953 54.1999 58.5173L55.4784 54.9254C54.107 54.4372 52.6235 54.2074 51.0489 54.2074V58.0201ZM54.1999 58.5173C55.0967 58.8365 56.0022 59.3591 56.9146 60.1222L59.3606 57.1976C58.1512 56.1861 56.8578 55.4163 55.4784 54.9254L54.1999 58.5173ZM56.9672 60.1647C56.8932 60.1071 56.7884 60.0061 56.697 59.8507C56.6027 59.6904 56.5473 59.5138 56.53 59.3414L60.3238 58.9621C60.2454 58.1778 59.8327 57.5632 59.308 57.1551L56.9672 60.1647ZM56.566 59.5653C56.5406 59.4511 56.5328 59.3271 56.5467 59.2016C56.5605 59.0775 56.593 58.9748 56.627 58.8983L60.1111 60.4468C60.342 59.9272 60.4212 59.3382 60.2879 58.7382L56.566 59.5653ZM56.664 58.82C56.712 58.7239 56.7817 58.6218 56.8764 58.5271C56.9711 58.4324 57.0732 58.3627 57.1693 58.3146L58.8744 61.7248C59.3976 61.4632 59.8125 61.0483 60.0742 60.5251L56.664 58.82ZM56.1724 59.5574C56.2188 59.372 56.3104 59.1768 56.4561 59.0019C56.599 58.8304 56.7559 58.7239 56.88 58.6618L58.5851 62.072C59.1895 61.7698 59.6853 61.226 59.8713 60.4821L56.1724 59.5574ZM56.88 58.6618C57.1097 58.547 57.2973 58.5499 57.3554 58.5552L57.0102 62.3523C57.4926 62.3961 58.0468 62.3412 58.5851 62.072L56.88 58.6618ZM57.3725 58.5569C57.6341 58.583 57.7788 58.6917 57.795 58.7047L55.4132 61.6819C55.8152 62.0036 56.3457 62.2859 56.9931 62.3506L57.3725 58.5569ZM57.8569 58.7564C56.9325 57.9505 55.9026 57.3397 54.7711 56.9461L53.5185 60.5472C54.1616 60.7709 54.7712 61.1245 55.3514 61.6303L57.8569 58.7564ZM54.8056 56.9585C53.6623 56.536 52.3982 56.3485 51.0489 56.3485V60.1612C52.0529 60.1612 52.8527 60.3015 53.484 60.5348L54.8056 56.9585ZM51.0489 56.3485C49.5327 56.3485 48.0851 56.6536 46.7279 57.2726L48.3102 60.7415C49.1519 60.3576 50.0576 60.1612 51.0489 60.1612V56.3485ZM46.7163 57.278C45.4184 57.8806 44.2689 58.7057 43.2764 59.7443L46.0329 62.3784C46.6993 61.681 47.4593 61.1366 48.3218 60.7361L46.7163 57.278ZM43.2764 59.7443C42.283 60.784 41.5014 61.9827 40.9319 63.3266L44.4425 64.8142C44.8374 63.8821 45.3675 63.0747 46.0329 62.3784L43.2764 59.7443ZM40.9214 63.3521C40.3623 64.7265 40.0865 66.1768 40.0865 67.6871H43.8991C43.8991 66.6512 44.0863 65.6904 44.453 64.7887L40.9214 63.3521ZM40.0865 67.6871C40.0865 69.2281 40.3595 70.6987 40.9214 72.0799L44.453 70.6433C44.089 69.7485 43.8991 68.7693 43.8991 67.6871H40.0865ZM40.9319 72.1054C41.5014 73.4493 42.283 74.648 43.2764 75.6877L46.0329 73.0537C45.3675 72.3573 44.8374 71.5499 44.4425 70.6178L40.9319 72.1054ZM43.2764 75.6877C44.2689 76.7263 45.4184 77.5514 46.7163 78.154L48.3218 74.6959C47.4593 74.2954 46.6993 73.751 46.0329 73.0537L43.2764 75.6877ZM46.7534 78.1707C48.1049 78.7635 49.5435 79.0546 51.0489 79.0546V75.2419C50.0468 75.2419 49.1322 75.0508 48.2848 74.6791L46.7534 78.1707ZM51.0489 79.0546C52.322 79.0546 53.5485 78.8455 54.7153 78.4169L53.4007 74.838C52.6771 75.1038 51.8977 75.2419 51.0489 75.2419V79.0546ZM54.7153 78.4169C55.8548 77.9983 56.9217 77.3985 57.9144 76.6314L55.5832 73.6145C54.8785 74.159 54.1515 74.5622 53.4007 74.838L54.7153 78.4169ZM57.9692 76.5874C57.9315 76.6188 57.8374 76.6871 57.6842 76.7361C57.5231 76.7876 57.3479 76.8011 57.1823 76.7756L57.762 73.0073C56.869 72.8699 56.0935 73.1875 55.5284 73.6584L57.9692 76.5874ZM57.2025 76.7787C57.1457 76.7705 57.073 76.7509 56.9957 76.7123C56.9185 76.6737 56.8591 76.6272 56.8185 76.5867L59.5145 73.8907C59.03 73.4061 58.4201 73.1012 57.7417 73.0043L57.2025 76.7787ZM56.8185 76.5867C56.7293 76.4975 56.6533 76.3832 56.6042 76.2557C56.557 76.1328 56.5495 76.0362 56.5495 75.9909H60.3622C60.3622 75.2491 60.113 74.4892 59.5145 73.8907L56.8185 76.5867ZM56.5495 75.9909C56.5495 75.9003 56.5679 75.7882 56.6168 75.674L60.1213 77.1759C60.2859 76.7917 60.3622 76.3901 60.3622 75.9909H56.5495ZM56.5605 75.8221C56.5958 75.7162 56.6358 75.6438 56.6587 75.6067C56.6819 75.569 56.696 75.5537 56.6902 75.5604L59.585 78.0417C59.7941 77.7978 60.0339 77.4587 60.1776 77.0278L56.5605 75.8221ZM56.8457 75.3992C56.0567 76.1263 55.1986 76.6254 54.2624 76.9226L55.416 80.5566C56.9102 80.0823 58.251 79.289 59.4295 78.2029L56.8457 75.3992ZM54.2888 76.9144C53.258 77.2253 52.1804 77.383 51.0489 77.383V81.1957C52.5408 81.1957 53.99 80.9869 55.3896 80.5648L54.2888 76.9144ZM68.0495 78.7685L67.4168 80.5668L67.4366 80.5738L67.4566 80.5803L68.0495 78.7685ZM65.3298 77.2351L64.0951 78.6876L64.0951 78.6876L65.3298 77.2351ZM63.5649 74.9493L65.2924 74.1432L65.2815 74.1198L65.2699 74.0968L63.5649 74.9493ZM63.5359 74.1103L61.8807 73.1645L61.8688 73.1853L61.8574 73.2065L63.5359 74.1103ZM64.2882 73.5605L64.7984 75.3974L64.8119 75.3935L64.2882 73.5605ZM65.0694 73.6473L64.1656 75.3258L64.191 75.3395L64.2168 75.3524L65.0694 73.6473ZM65.677 74.2549L63.9719 75.1075L63.9777 75.1192L63.9837 75.1308L65.677 74.2549ZM68.9464 76.8011L68.3572 78.6141L68.3779 78.6208L68.3987 78.627L68.9464 76.8011ZM74.2123 76.6564L74.9425 78.4174L74.9606 78.4098L74.9786 78.4019L74.2123 76.6564ZM76.064 75.1808L74.5066 74.0814L74.5001 74.0908L76.064 75.1808ZM75.4564 69.7703L76.7892 68.4072L76.7892 68.4072L75.4564 69.7703ZM71.3768 68.15L71.6133 66.2583L71.6033 66.2572L71.3768 68.15ZM66.0821 66.0668L64.8115 67.4881L64.8176 67.4934L64.8236 67.4988L66.0821 66.0668ZM65.0983 58.8335L63.561 57.7061L63.5528 57.7174L63.5447 57.7287L65.0983 58.8335ZM67.7023 56.8371L68.4421 58.594L68.4551 58.5886L68.468 58.5829L67.7023 56.8371ZM74.3859 56.6345L73.6779 58.4045L73.695 58.4114L73.7122 58.4179L74.3859 56.6345ZM76.6427 57.9655L75.3843 59.3975L75.4073 59.4176L75.4308 59.437L76.6427 57.9655ZM78.234 59.7593L76.6121 60.7611L76.6175 60.7697L78.234 59.7593ZM78.4076 60.6563L76.5657 60.1651L76.5501 60.2233L76.5383 60.2824L78.4076 60.6563ZM77.9158 61.3217L78.7219 63.0492L78.7933 63.016L78.8616 62.9769L77.9158 61.3217ZM77.0188 61.3796L76.416 63.1881L76.4331 63.1938L76.4502 63.1992L77.0188 61.3796ZM76.3534 60.8299L78.0086 59.8841L77.9808 59.8354L77.9502 59.7885L76.3534 60.8299ZM75.2539 59.5857L73.9376 60.9647L73.9696 60.9953L74.003 61.0243L75.2539 59.5857ZM73.6915 58.6309L74.3609 56.846L74.3609 56.846L73.6915 58.6309ZM71.4636 58.2548L71.506 56.3489L71.4848 56.3485H71.4636V58.2548ZM67.7891 59.2385L68.8691 60.8095L68.8801 60.8019L68.891 60.7942L67.7891 59.2385ZM66.9211 63.8679L65.3014 64.8732L65.3094 64.886L65.3175 64.8987L66.9211 63.8679ZM68.6282 65.2856L67.7591 66.9823L67.7837 66.9949L67.8086 67.0068L68.6282 65.2856ZM71.8687 66.1536L72.1404 64.2667L72.1383 64.2664L71.8687 66.1536ZM77.2214 68.3815L75.8848 69.7407L75.8962 69.752L75.9078 69.763L77.2214 68.3815ZM78.4076 75.5569L76.6865 74.7373L76.6785 74.7542L76.6708 74.7712L78.4076 75.5569ZM76.8163 77.6112L78.0072 79.0998L78.0122 79.0958L76.8163 77.6112ZM74.4148 78.8553L73.8462 77.0357L73.8352 77.0392L74.4148 78.8553ZM71.4926 77.383C70.4383 77.383 69.4928 77.235 68.6425 76.9567L67.4566 80.5803C68.728 80.9964 70.0779 81.1957 71.4926 81.1957V77.383ZM68.6822 76.9703C67.8408 76.6742 67.1428 76.2741 66.5644 75.7825L64.0951 78.6876C65.0599 79.5076 66.175 80.1299 67.4168 80.5668L68.6822 76.9703ZM66.5644 75.7825C65.9895 75.2939 65.5749 74.7487 65.2924 74.1432L61.8374 75.7555C62.3649 76.886 63.1269 77.8646 64.0951 78.6876L66.5644 75.7825ZM65.2699 74.0968C65.2874 74.1317 65.3406 74.2526 65.3471 74.4424C65.3541 74.6463 65.304 74.8476 65.2144 75.0141L61.8574 73.2065C61.3642 74.1225 61.4946 75.0715 61.8598 75.8019L65.2699 74.0968ZM65.1911 75.0561C65.1354 75.1536 65.056 75.2426 64.9645 75.3095C64.8775 75.3731 64.811 75.3938 64.7984 75.3973L63.778 71.7237C63.0296 71.9316 62.3241 72.3887 61.8807 73.1645L65.1911 75.0561ZM64.8119 75.3935C64.7258 75.4181 64.609 75.4339 64.4755 75.4191C64.3425 75.4043 64.2365 75.364 64.1656 75.3258L65.9732 71.9689C65.2918 71.6019 64.5198 71.5117 63.7645 71.7275L64.8119 75.3935ZM64.2168 75.3524C64.1786 75.3333 64.1271 75.2998 64.0758 75.2485C64.0245 75.1972 63.991 75.1458 63.9719 75.1075L67.3821 73.4024C67.0626 72.7634 66.5609 72.2617 65.9219 71.9422L64.2168 75.3524ZM63.9837 75.1308C64.4126 75.9598 65.023 76.6642 65.7655 77.2531L68.1346 74.2658C67.7584 73.9674 67.5201 73.6688 67.3702 73.3791L63.9837 75.1308ZM65.7655 77.2531C66.5252 77.8556 67.3989 78.3026 68.3572 78.6141L69.5357 74.9881C68.9509 74.798 68.4937 74.5506 68.1346 74.2658L65.7655 77.2531ZM68.3987 78.627C69.3722 78.9191 70.4083 79.0546 71.4926 79.0546V75.2419C70.7251 75.2419 70.0639 75.146 69.4942 74.9751L68.3987 78.627ZM71.4926 79.0546C72.7178 79.0546 73.8799 78.858 74.9425 78.4174L73.4822 74.8954C72.9631 75.1107 72.312 75.2419 71.4926 75.2419V79.0546ZM74.9786 78.4019C76.0532 77.9302 76.9617 77.2268 77.628 76.2708L74.5001 74.0908C74.2791 74.4078 73.9531 74.6882 73.446 74.9109L74.9786 78.4019ZM77.6215 76.2802C78.345 75.2552 78.6648 74.0654 78.6648 72.8083H74.8521C74.8521 73.4029 74.709 73.7947 74.5066 74.0814L77.6215 76.2802ZM78.6648 72.8083C78.6648 71.1006 78.011 69.6018 76.7892 68.4072L74.1237 71.1333C74.6379 71.6361 74.8521 72.1627 74.8521 72.8083H78.6648ZM76.7892 68.4072C75.5013 67.148 73.6691 66.5153 71.6133 66.2584L71.1404 70.0416C72.7881 70.2476 73.6756 70.6951 74.1237 71.1333L76.7892 68.4072ZM71.6033 66.2572C69.6011 66.0176 68.2403 65.4256 67.3405 64.6348L64.8236 67.4988C66.4699 68.9455 68.639 69.7423 71.1504 70.0428L71.6033 66.2572ZM67.3526 64.6456C66.465 63.8521 66.0788 62.9722 66.0788 61.9004H62.2661C62.2661 64.1077 63.153 66.0054 64.8115 67.4881L67.3526 64.6456ZM66.0788 61.9004C66.0788 61.0763 66.2881 60.4499 66.6519 59.9382L63.5447 57.7287C62.6741 58.9531 62.2661 60.3713 62.2661 61.9004H66.0788ZM66.6356 59.9608C67.0466 59.4004 67.6251 58.938 68.4421 58.594L66.9625 55.0801C65.5806 55.662 64.4231 56.5305 63.561 57.7061L66.6356 59.9608ZM68.468 58.5829C69.2849 58.2246 70.2798 58.0201 71.4926 58.0201V54.2074C69.8506 54.2074 68.3186 54.4851 66.9366 55.0913L68.468 58.5829ZM71.4926 58.0201C72.3434 58.0201 73.0634 58.1587 73.6779 58.4045L75.0939 54.8645C73.9724 54.4159 72.7635 54.2074 71.4926 54.2074V58.0201ZM73.7122 58.4179C74.3861 58.6725 74.9356 59.0031 75.3843 59.3975L77.9011 56.5335C77.0768 55.8091 76.1217 55.2524 75.0596 54.8512L73.7122 58.4179ZM75.4308 59.437C75.9415 59.8576 76.3277 60.3006 76.6121 60.7611L79.856 58.7576C79.3303 57.9065 78.6555 57.1535 77.8546 56.4939L75.4308 59.437ZM76.6175 60.7697C76.6135 60.7633 76.5738 60.6977 76.5505 60.5773C76.5256 60.4487 76.5287 60.3038 76.5657 60.1651L80.2496 61.1475C80.4915 60.2406 80.2584 59.4014 79.8506 58.749L76.6175 60.7697ZM76.5383 60.2824C76.5604 60.1719 76.6123 60.0364 76.7082 59.9065C76.8025 59.7789 76.9044 59.704 76.97 59.6666L78.8616 62.9769C79.5808 62.5659 80.1045 61.8924 80.277 61.0301L76.5383 60.2824ZM77.1096 59.5942C77.1656 59.5681 77.2494 59.5417 77.3518 59.5351C77.4538 59.5285 77.5362 59.544 77.5875 59.56L76.4502 63.1992C77.2062 63.4354 77.9958 63.3881 78.7219 63.0492L77.1096 59.5942ZM77.6217 59.5711C77.6864 59.5927 77.7687 59.6333 77.8496 59.7001C77.93 59.7665 77.9808 59.8355 78.0086 59.8841L74.6982 61.7757C75.0801 62.4441 75.6721 62.9402 76.416 63.1881L77.6217 59.5711ZM77.9502 59.7885C77.5545 59.1819 77.0671 58.6362 76.5048 58.1472L74.003 61.0243C74.328 61.3069 74.5736 61.5906 74.7566 61.8712L77.9502 59.7885ZM76.5702 58.2068C75.9381 57.6034 75.1892 57.1566 74.3609 56.846L73.0222 60.4159C73.4283 60.5682 73.721 60.7579 73.9376 60.9647L76.5702 58.2068ZM74.3609 56.846C73.4907 56.5196 72.5243 56.3716 71.506 56.3489L71.4213 60.1607C72.139 60.1766 72.6579 60.2793 73.0222 60.4159L74.3609 56.846ZM71.4636 56.3485C69.6783 56.3485 68.0291 56.7324 66.6872 57.6829L68.891 60.7942C69.4008 60.433 70.2013 60.1612 71.4636 60.1612V56.3485ZM66.7091 57.6676C65.2088 58.6991 64.494 60.2555 64.494 62.0451H68.3067C68.3067 61.3656 68.5177 61.051 68.8691 60.8095L66.7091 57.6676ZM64.494 62.0451C64.494 63.0576 64.7676 64.0132 65.3014 64.8732L68.5408 62.8625C68.3802 62.6038 68.3067 62.3442 68.3067 62.0451H64.494ZM65.3175 64.8987C65.9033 65.8099 66.7787 66.4802 67.7591 66.9823L69.4972 63.5889C68.896 63.2809 68.6334 63.006 68.5247 62.837L65.3175 64.8987ZM67.8086 67.0068C68.8581 67.5065 70.1465 67.8333 71.5991 68.0408L72.1383 64.2664C70.8905 64.0882 70.0186 63.8362 69.4478 63.5644L67.8086 67.0068ZM71.597 68.0405C73.7969 68.3573 75.1296 68.9982 75.8848 69.7407L78.558 67.0222C76.9985 65.4887 74.7627 64.6443 72.1404 64.2667L71.597 68.0405ZM75.9078 69.763C76.6598 70.478 77.08 71.4212 77.08 72.7793H80.8927C80.8927 70.5112 80.1362 68.5224 78.535 66.9999L75.9078 69.763ZM77.08 72.7793C77.08 73.5828 76.9322 74.2213 76.6865 74.7373L80.1288 76.3765C80.6546 75.2723 80.8927 74.0591 80.8927 72.7793H77.08ZM76.6708 74.7712C76.4277 75.3084 76.0829 75.7541 75.6204 76.1266L78.0122 79.0958C78.9385 78.3496 79.6546 77.4257 80.1445 76.3427L76.6708 74.7712ZM75.6254 76.1226C75.1566 76.4977 74.5734 76.8085 73.8462 77.0358L74.9835 80.6749C76.1081 80.3235 77.1258 79.8049 78.0072 79.0998L75.6254 76.1226ZM73.8352 77.0392C73.1329 77.2634 72.356 77.383 71.4926 77.383V81.1957C72.7124 81.1957 73.8837 81.0259 74.9945 80.6714L73.8352 77.0392ZM88.6532 78.7685L88.0205 80.5668L88.0403 80.5738L88.0603 80.5803L88.6532 78.7685ZM85.9335 77.2351L84.6988 78.6876L84.6988 78.6876L85.9335 77.2351ZM84.1685 74.9493L85.896 74.1432L85.8851 74.1198L85.8736 74.0968L84.1685 74.9493ZM84.1396 74.1103L82.4844 73.1645L82.4725 73.1853L82.4611 73.2065L84.1396 74.1103ZM84.8919 73.5605L85.4021 75.3974L85.4156 75.3935L84.8919 73.5605ZM85.6731 73.6473L84.7693 75.3258L84.7947 75.3395L84.8205 75.3524L85.6731 73.6473ZM86.2807 74.2549L84.5756 75.1075L84.5814 75.1192L84.5874 75.1308L86.2807 74.2549ZM89.5501 76.8011L88.9609 78.6141L88.9816 78.6208L89.0024 78.627L89.5501 76.8011ZM94.816 76.6564L95.5462 78.4174L95.5643 78.4098L95.5823 78.4019L94.816 76.6564ZM96.6677 75.1808L95.1103 74.0814L95.1038 74.0908L96.6677 75.1808ZM96.0601 69.7703L97.3929 68.4072L97.3929 68.4072L96.0601 69.7703ZM91.9805 68.15L92.217 66.2583L92.207 66.2572L91.9805 68.15ZM86.6857 66.0668L85.4152 67.4881L85.4213 67.4934L85.4273 67.4988L86.6857 66.0668ZM85.702 58.8335L84.1647 57.7061L84.1565 57.7174L84.1484 57.7287L85.702 58.8335ZM88.306 56.8371L89.0458 58.594L89.0588 58.5886L89.0717 58.5829L88.306 56.8371ZM94.9896 56.6345L94.2816 58.4045L94.2987 58.4114L94.3159 58.4179L94.9896 56.6345ZM97.2464 57.9655L95.988 59.3975L96.0109 59.4176L96.0345 59.437L97.2464 57.9655ZM98.8377 59.7593L97.2158 60.7611L97.2212 60.7697L98.8377 59.7593ZM99.0113 60.6563L97.1694 60.1651L97.1538 60.2233L97.142 60.2824L99.0113 60.6563ZM98.5195 61.3217L99.3256 63.0492L99.397 63.016L99.4653 62.9769L98.5195 61.3217ZM97.6225 61.3796L97.0197 63.1881L97.0368 63.1938L97.0539 63.1992L97.6225 61.3796ZM96.9571 60.8299L98.6122 59.8841L98.5844 59.8354L98.5538 59.7885L96.9571 60.8299ZM95.8576 59.5857L94.5413 60.9647L94.5733 60.9953L94.6067 61.0243L95.8576 59.5857ZM94.2952 58.6309L94.9646 56.846L94.9646 56.846L94.2952 58.6309ZM92.0673 58.2548L92.1097 56.3489L92.0885 56.3485H92.0673V58.2548ZM88.3928 59.2385L89.4728 60.8095L89.4838 60.8019L89.4947 60.7942L88.3928 59.2385ZM87.5248 63.8679L85.9051 64.8732L85.9131 64.886L85.9212 64.8987L87.5248 63.8679ZM89.2319 65.2856L88.3628 66.9823L88.3874 66.9949L88.4123 67.0068L89.2319 65.2856ZM92.4724 66.1536L92.7441 64.2667L92.742 64.2664L92.4724 66.1536ZM97.8251 68.3815L96.4885 69.7407L96.4999 69.752L96.5115 69.763L97.8251 68.3815ZM99.0113 75.5569L97.2902 74.7373L97.2821 74.7542L97.2744 74.7712L99.0113 75.5569ZM97.42 77.6112L98.6109 79.0998L98.6159 79.0958L97.42 77.6112ZM95.0185 78.8553L94.4499 77.0357L94.4389 77.0392L95.0185 78.8553ZM92.0963 77.383C91.042 77.383 90.0965 77.235 89.2462 76.9567L88.0603 80.5803C89.3317 80.9964 90.6815 81.1957 92.0963 81.1957V77.383ZM89.2859 76.9703C88.4445 76.6742 87.7465 76.2741 87.1681 75.7825L84.6988 78.6876C85.6636 79.5076 86.7787 80.1299 88.0205 80.5668L89.2859 76.9703ZM87.1681 75.7825C86.5932 75.2939 86.1786 74.7487 85.896 74.1432L82.441 75.7555C82.9686 76.886 83.7306 77.8646 84.6988 78.6876L87.1681 75.7825ZM85.8736 74.0968C85.8911 74.1317 85.9442 74.2526 85.9508 74.4424C85.9578 74.6463 85.9077 74.8476 85.8181 75.0141L82.4611 73.2065C81.9679 74.1225 82.0982 75.0715 82.4635 75.8019L85.8736 74.0968ZM85.7948 75.0561C85.7391 75.1536 85.6597 75.2426 85.5682 75.3095C85.4812 75.3731 85.4147 75.3938 85.4021 75.3973L84.3817 71.7237C83.6332 71.9316 82.9277 72.3887 82.4844 73.1645L85.7948 75.0561ZM85.4156 75.3935C85.3295 75.4181 85.2127 75.4339 85.0792 75.4191C84.9462 75.4043 84.8402 75.364 84.7693 75.3258L86.5769 71.9689C85.8955 71.6019 85.1235 71.5117 84.3682 71.7275L85.4156 75.3935ZM84.8205 75.3524C84.7823 75.3333 84.7308 75.2998 84.6795 75.2485C84.6282 75.1972 84.5947 75.1458 84.5756 75.1075L87.9858 73.4024C87.6663 72.7634 87.1646 72.2617 86.5256 71.9422L84.8205 75.3524ZM84.5874 75.1308C85.0162 75.9598 85.6267 76.6642 86.3691 77.2531L88.7383 74.2658C88.3621 73.9674 88.1238 73.6688 87.9739 73.3791L84.5874 75.1308ZM86.3691 77.2531C87.1289 77.8556 88.0026 78.3026 88.9609 78.6141L90.1394 74.9881C89.5546 74.798 89.0973 74.5506 88.7383 74.2658L86.3691 77.2531ZM89.0024 78.627C89.9758 78.9191 91.012 79.0546 92.0963 79.0546V75.2419C91.3288 75.2419 90.6675 75.146 90.0979 74.9751L89.0024 78.627ZM92.0963 79.0546C93.3215 79.0546 94.4836 78.858 95.5462 78.4174L94.0858 74.8954C93.5668 75.1107 92.9157 75.2419 92.0963 75.2419V79.0546ZM95.5823 78.4019C96.6569 77.9302 97.5654 77.2268 98.2317 76.2708L95.1038 74.0908C94.8828 74.4078 94.5568 74.6882 94.0497 74.9109L95.5823 78.4019ZM98.2252 76.2802C98.9486 75.2552 99.2685 74.0654 99.2685 72.8083H95.4558C95.4558 73.4029 95.3127 73.7947 95.1103 74.0814L98.2252 76.2802ZM99.2685 72.8083C99.2685 71.1006 98.6146 69.6018 97.3929 68.4072L94.7274 71.1333C95.2416 71.6361 95.4558 72.1627 95.4558 72.8083H99.2685ZM97.3929 68.4072C96.105 67.148 94.2727 66.5153 92.217 66.2584L91.7441 70.0416C93.3918 70.2476 94.2792 70.6951 94.7274 71.1333L97.3929 68.4072ZM92.207 66.2572C90.2048 66.0176 88.844 65.4256 87.9441 64.6348L85.4273 67.4988C87.0736 68.9455 89.2427 69.7423 91.754 70.0428L92.207 66.2572ZM87.9563 64.6456C87.0687 63.8521 86.6825 62.9722 86.6825 61.9004H82.8698C82.8698 64.1077 83.7567 66.0054 85.4152 67.4881L87.9563 64.6456ZM86.6825 61.9004C86.6825 61.0763 86.8918 60.4499 87.2556 59.9382L84.1484 57.7287C83.2778 58.9531 82.8698 60.3713 82.8698 61.9004H86.6825ZM87.2393 59.9608C87.6503 59.4004 88.2288 58.938 89.0458 58.594L87.5662 55.0801C86.1843 55.662 85.0268 56.5305 84.1647 57.7061L87.2393 59.9608ZM89.0717 58.5829C89.8886 58.2246 90.8835 58.0201 92.0963 58.0201V54.2074C90.4543 54.2074 88.9223 54.4851 87.5403 55.0913L89.0717 58.5829ZM92.0963 58.0201C92.9471 58.0201 93.6671 58.1587 94.2816 58.4045L95.6976 54.8645C94.5761 54.4159 93.3672 54.2074 92.0963 54.2074V58.0201ZM94.3159 58.4179C94.9898 58.6725 95.5393 59.0031 95.988 59.3975L98.5048 56.5335C97.6805 55.8091 96.7254 55.2524 95.6633 54.8512L94.3159 58.4179ZM96.0345 59.437C96.5452 59.8576 96.9314 60.3006 97.2158 60.7611L100.46 58.7576C99.934 57.9065 99.2592 57.1535 98.4583 56.4939L96.0345 59.437ZM97.2212 60.7697C97.2171 60.7633 97.1775 60.6977 97.1542 60.5773C97.1293 60.4487 97.1324 60.3038 97.1694 60.1651L100.853 61.1475C101.095 60.2406 100.862 59.4014 100.454 58.749L97.2212 60.7697ZM97.142 60.2824C97.1641 60.1719 97.2159 60.0364 97.3119 59.9065C97.4062 59.7789 97.5081 59.704 97.5737 59.6666L99.4653 62.9769C100.184 62.5659 100.708 61.8924 100.881 61.0301L97.142 60.2824ZM97.7133 59.5942C97.7693 59.5681 97.8531 59.5417 97.9555 59.5351C98.0575 59.5285 98.1399 59.544 98.1912 59.56L97.0539 63.1992C97.8099 63.4354 98.5995 63.3881 99.3256 63.0492L97.7133 59.5942ZM98.2254 59.5711C98.2901 59.5927 98.3724 59.6333 98.4533 59.7001C98.5337 59.7665 98.5845 59.8355 98.6122 59.8841L95.3019 61.7757C95.6838 62.4441 96.2758 62.9402 97.0197 63.1881L98.2254 59.5711ZM98.5538 59.7885C98.1582 59.1819 97.6708 58.6362 97.1085 58.1472L94.6067 61.0243C94.9317 61.3069 95.1772 61.5906 95.3603 61.8712L98.5538 59.7885ZM97.1739 58.2068C96.5418 57.6034 95.7929 57.1566 94.9646 56.846L93.6258 60.4159C94.032 60.5682 94.3247 60.7579 94.5413 60.9647L97.1739 58.2068ZM94.9646 56.846C94.0943 56.5196 93.128 56.3716 92.1097 56.3489L92.025 60.1607C92.7427 60.1766 93.2616 60.2793 93.6258 60.4159L94.9646 56.846ZM92.0673 56.3485C90.282 56.3485 88.6328 56.7324 87.2909 57.6829L89.4947 60.7942C90.0045 60.433 90.805 60.1612 92.0673 60.1612V56.3485ZM87.3128 57.6676C85.8125 58.6991 85.0977 60.2555 85.0977 62.0451H88.9104C88.9104 61.3656 89.1214 61.051 89.4728 60.8095L87.3128 57.6676ZM85.0977 62.0451C85.0977 63.0576 85.3713 64.0132 85.9051 64.8732L89.1445 62.8625C88.9839 62.6038 88.9104 62.3442 88.9104 62.0451H85.0977ZM85.9212 64.8987C86.507 65.8099 87.3824 66.4802 88.3628 66.9823L90.1009 63.5889C89.4997 63.2809 89.237 63.006 89.1284 62.837L85.9212 64.8987ZM88.4123 67.0068C89.4618 67.5065 90.7502 67.8333 92.2028 68.0408L92.742 64.2664C91.4942 64.0882 90.6223 63.8362 90.0515 63.5644L88.4123 67.0068ZM92.2007 68.0405C94.4006 68.3573 95.7333 68.9982 96.4885 69.7407L99.1617 67.0222C97.6021 65.4887 95.3664 64.6443 92.7441 64.2667L92.2007 68.0405ZM96.5115 69.763C97.2635 70.478 97.6837 71.4212 97.6837 72.7793H101.496C101.496 70.5112 100.74 68.5224 99.1387 66.9999L96.5115 69.763ZM97.6837 72.7793C97.6837 73.5828 97.5359 74.2213 97.2902 74.7373L100.733 76.3765C101.258 75.2723 101.496 74.0591 101.496 72.7793H97.6837ZM97.2744 74.7712C97.0314 75.3084 96.6866 75.7541 96.2241 76.1266L98.6159 79.0958C99.5422 78.3496 100.258 77.4257 100.748 76.3427L97.2744 74.7712ZM96.2291 76.1226C95.7603 76.4977 95.1771 76.8085 94.4499 77.0358L95.5872 80.6749C96.7118 80.3235 97.7295 79.8049 98.6109 79.0998L96.2291 76.1226ZM94.4389 77.0392C93.7366 77.2634 92.9597 77.383 92.0963 77.383V81.1957C93.3161 81.1957 94.4873 81.0259 95.5981 80.6714L94.4389 77.0392Z" fill="#FFFBEB" mask="url(#path-6-outside-1_4_825)"/>
</g>
</g>
</g>
<defs>
<filter id="filter0_d_4_825" x="0.664366" y="0.151763" width="138.049" height="138.049" filterUnits="userSpaceOnUse" color-interpolation-filters="sRGB">
<feFlood flood-opacity="0" result="BackgroundImageFix"/>
<feColorMatrix in="SourceAlpha" type="matrix" values="0 0 0 0 0 0 0 0 0 0 0 0 0 0 0 0 0 0 127 0" result="hardAlpha"/>
<feOffset dy="1.81644"/>
<feGaussianBlur stdDeviation="1.81644"/>
<feComposite in2="hardAlpha" operator="out"/>
<feColorMatrix type="matrix" values="0 0 0 0 0 0 0 0 0 0 0 0 0 0 0 0 0 0 0.08 0"/>
<feBlend mode="normal" in2="BackgroundImageFix" result="effect1_dropShadow_4_825"/>
<feBlend mode="normal" in="SourceGraphic" in2="effect1_dropShadow_4_825" result="shape"/>
</filter>
<filter id="filter1_f_4_825" x="18.1072" y="15.1072" width="103.786" height="103.786" filterUnits="userSpaceOnUse" color-interpolation-filters="sRGB">
<feFlood flood-opacity="0" result="BackgroundImageFix"/>
<feBlend mode="normal" in="SourceGraphic" in2="BackgroundImageFix" result="shape"/>
<feGaussianBlur stdDeviation="1" result="effect1_foregroundBlur_4_825"/>
</filter>
<filter id="filter2_d_4_825" x="34.7939" y="53.1138" width="69.7961" height="33.1755" filterUnits="userSpaceOnUse" color-interpolation-filters="sRGB">
<feFlood flood-opacity="0" result="BackgroundImageFix"/>
<feColorMatrix in="SourceAlpha" type="matrix" values="0 0 0 0 0 0 0 0 0 0 0 0 0 0 0 0 0 0 127 0" result="hardAlpha"/>
<feOffset dy="2"/>
<feGaussianBlur stdDeviation="2.5"/>
<feComposite in2="hardAlpha" operator="out"/>
<feColorMatrix type="matrix" values="0 0 0 0 0 0 0 0 0 0 0 0 0 0 0 0 0 0 0.08 0"/>
<feBlend mode="normal" in2="BackgroundImageFix" result="effect1_dropShadow_4_825"/>
<feBlend mode="normal" in="SourceGraphic" in2="effect1_dropShadow_4_825" result="shape"/>
</filter>
<linearGradient id="paint0_linear_4_825" x1="70" y1="9" x2="70" y2="125" gradientUnits="userSpaceOnUse">
<stop stop-color="#488FFF"/>
<stop offset="1" stop-color="#1759C1"/>
</linearGradient>
<linearGradient id="paint1_linear_4_825" x1="70" y1="18.1072" x2="46.086" y2="74.4315" gradientUnits="userSpaceOnUse">
<stop stop-color="white"/>
<stop offset="1" stop-color="white" stop-opacity="0"/>
</linearGradient>
<clipPath id="clip0_4_825">
<rect x="11.563" y="9.23395" width="116.252" height="116.252" rx="58.126" fill="white"/>
</clipPath>
</defs>
</svg>
