<svg width="33" height="33" viewBox="0 0 33 33" fill="none" xmlns="http://www.w3.org/2000/svg">
<path d="M20.6309 16.9256L17.8334 15.311V9.41386C17.8334 9.06024 17.6929 8.7211 17.4428 8.47105C17.1928 8.221 16.8536 8.08053 16.5 8.08053C16.1464 8.08053 15.8073 8.221 15.5572 8.47105C15.3072 8.7211 15.1667 9.06024 15.1667 9.41386V16.0805C15.1666 16.3146 15.2282 16.5446 15.3452 16.7473C15.4623 16.9501 15.6306 17.1184 15.8334 17.2355L19.2975 19.2355C19.4492 19.3231 19.6167 19.38 19.7904 19.403C19.964 19.4259 20.1405 19.4143 20.3097 19.369C20.479 19.3237 20.6376 19.2455 20.7766 19.1389C20.9156 19.0322 21.0322 18.8993 21.1198 18.7475C21.2073 18.5958 21.2642 18.4283 21.287 18.2546C21.3098 18.0809 21.2982 17.9045 21.2528 17.7353C21.2074 17.5661 21.1291 17.4075 21.0224 17.2686C20.9157 17.1296 20.7826 17.0131 20.6309 16.9256ZM16.5 2.74719C13.8629 2.74719 11.2851 3.52918 9.09242 4.99426C6.89977 6.45935 5.1908 8.54173 4.18163 10.9781C3.17246 13.4144 2.90842 16.0953 3.42289 18.6817C3.93736 21.2681 5.20724 23.6439 7.07194 25.5086C8.93664 27.3733 11.3124 28.6432 13.8988 29.1577C16.4852 29.6721 19.1661 29.4081 21.6025 28.3989C24.0388 27.3898 26.1212 25.6808 27.5863 23.4881C29.0514 21.2955 29.8334 18.7176 29.8334 16.0805C29.8294 12.5455 28.4234 9.15641 25.9238 6.65678C23.4241 4.15714 20.035 2.75112 16.5 2.74719ZM16.5 26.7472C14.3904 26.7472 12.3281 26.1216 10.5739 24.9495C8.81982 23.7775 7.45265 22.1116 6.64531 20.1625C5.83798 18.2134 5.62674 16.0687 6.03832 13.9996C6.44989 11.9304 7.46579 10.0298 8.95755 8.53805C10.4493 7.04629 12.3499 6.03039 14.4191 5.61882C16.4882 5.20724 18.6329 5.41848 20.582 6.22581C22.5311 7.03315 24.197 8.40032 25.369 10.1544C26.5411 11.9086 27.1667 13.9709 27.1667 16.0805C27.1635 18.9085 26.0386 21.6197 24.0389 23.6194C22.0392 25.6191 19.328 26.744 16.5 26.7472Z" fill="#9CA3AF"/>
</svg>
