<svg width="64" height="64" viewBox="0 0 64 64" fill="none" xmlns="http://www.w3.org/2000/svg">
<g filter="url(#filter0_d_4_454)">
<rect x="8" y="6" width="48" height="48" rx="24" fill="white"/>
<rect x="8.5" y="6.5" width="47" height="47" rx="23.5" stroke="#F9FAFB"/>
<path d="M23 29C22.8022 29 22.6089 29.0587 22.4444 29.1685C22.28 29.2784 22.1518 29.4346 22.0761 29.6173C22.0004 29.8 21.9806 30.0011 22.0192 30.1951C22.0578 30.3891 22.153 30.5673 22.2929 30.7071C22.4327 30.847 22.6109 30.9422 22.8049 30.9808C22.9989 31.0194 23.2 30.9996 23.3827 30.9239C23.5654 30.8482 23.7216 30.72 23.8315 30.5556C23.9414 30.3911 24 30.1978 24 30C24 29.7348 23.8946 29.4804 23.7071 29.2929C23.5196 29.1054 23.2652 29 23 29ZM24.93 35.66C24.7896 35.7996 24.6937 35.9778 24.6547 36.1719C24.6156 36.3661 24.635 36.5674 24.7106 36.7505C24.7861 36.9336 24.9142 37.0901 25.0788 37.2003C25.2434 37.3104 25.437 37.3692 25.635 37.3692C25.833 37.3692 26.0266 37.3104 26.1912 37.2003C26.3558 37.0901 26.4839 36.9336 26.5594 36.7505C26.635 36.5674 26.6544 36.3661 26.6153 36.1719C26.5763 35.9778 26.4804 35.7996 26.34 35.66C26.1526 35.4738 25.8992 35.3692 25.635 35.3692C25.3708 35.3692 25.1174 35.4738 24.93 35.66ZM26.34 24.34C26.4804 24.2004 26.5763 24.0222 26.6153 23.8281C26.6544 23.6339 26.635 23.4326 26.5594 23.2495C26.4839 23.0664 26.3558 22.9099 26.1912 22.7997C26.0266 22.6896 25.833 22.6308 25.635 22.6308C25.437 22.6308 25.2434 22.6896 25.0788 22.7997C24.9142 22.9099 24.7861 23.0664 24.7106 23.2495C24.635 23.4326 24.6156 23.6339 24.6547 23.8281C24.6937 24.0222 24.7896 24.2004 24.93 24.34C25.1174 24.5263 25.3708 24.6308 25.635 24.6308C25.8992 24.6308 26.1526 24.5263 26.34 24.34ZM32 22C32.1978 22 32.3911 21.9414 32.5556 21.8315C32.72 21.7216 32.8482 21.5654 32.9239 21.3827C32.9996 21.2 33.0194 20.9989 32.9808 20.8049C32.9422 20.6109 32.847 20.4327 32.7071 20.2929C32.5673 20.153 32.3891 20.0578 32.1951 20.0192C32.0011 19.9806 31.8 20.0004 31.6173 20.0761C31.4346 20.1518 31.2784 20.28 31.1685 20.4444C31.0587 20.6089 31 20.8022 31 21C31 21.2652 31.1054 21.5196 31.2929 21.7071C31.4804 21.8946 31.7348 22 32 22ZM37.66 35.66C37.5196 35.7996 37.4237 35.9778 37.3847 36.1719C37.3456 36.3661 37.365 36.5674 37.4406 36.7505C37.5161 36.9336 37.6442 37.0901 37.8088 37.2003C37.9734 37.3104 38.167 37.3692 38.365 37.3692C38.563 37.3692 38.7566 37.3104 38.9212 37.2003C39.0858 37.0901 39.2139 36.9336 39.2894 36.7505C39.365 36.5674 39.3844 36.3661 39.3453 36.1719C39.3063 35.9778 39.2104 35.7996 39.07 35.66C38.8826 35.4738 38.6292 35.3692 38.365 35.3692C38.1008 35.3692 37.8474 35.4738 37.66 35.66ZM41 29C40.8022 29 40.6089 29.0587 40.4444 29.1685C40.28 29.2784 40.1518 29.4346 40.0761 29.6173C40.0004 29.8 39.9806 30.0011 40.0192 30.1951C40.0578 30.3891 40.153 30.5673 40.2929 30.7071C40.4327 30.847 40.6109 30.9422 40.8049 30.9808C40.9989 31.0194 41.2 30.9996 41.3827 30.9239C41.5654 30.8482 41.7216 30.72 41.8315 30.5556C41.9414 30.3911 42 30.1978 42 30C42 29.7348 41.8946 29.4804 41.7071 29.2929C41.5196 29.1054 41.2652 29 41 29ZM37.66 22.93C37.5196 23.0696 37.4237 23.2478 37.3847 23.4419C37.3456 23.6361 37.365 23.8374 37.4406 24.0205C37.5161 24.2036 37.6442 24.3601 37.8088 24.4703C37.9734 24.5804 38.167 24.6392 38.365 24.6392C38.563 24.6392 38.7566 24.5804 38.9212 24.4703C39.0858 24.3601 39.2139 24.2036 39.2894 24.0205C39.365 23.8374 39.3844 23.6361 39.3453 23.4419C39.3063 23.2478 39.2104 23.0696 39.07 22.93C38.8826 22.7437 38.6292 22.6392 38.365 22.6392C38.1008 22.6392 37.8474 22.7437 37.66 22.93ZM32 38C31.8022 38 31.6089 38.0586 31.4444 38.1685C31.28 38.2784 31.1518 38.4346 31.0761 38.6173C31.0004 38.8 30.9806 39.0011 31.0192 39.1951C31.0578 39.3891 31.153 39.5673 31.2929 39.7071C31.4327 39.847 31.6109 39.9422 31.8049 39.9808C31.9989 40.0194 32.2 39.9996 32.3827 39.9239C32.5654 39.8482 32.7216 39.72 32.8315 39.5556C32.9414 39.3911 33 39.1978 33 39C33 38.7348 32.8946 38.4804 32.7071 38.2929C32.5196 38.1054 32.2652 38 32 38ZM32 24C30.8133 24 29.6533 24.3519 28.6666 25.0112C27.6799 25.6705 26.9108 26.6075 26.4567 27.7039C26.0026 28.8003 25.8838 30.0067 26.1153 31.1705C26.3468 32.3344 26.9182 33.4035 27.7574 34.2426C28.5965 35.0818 29.6656 35.6532 30.8295 35.8847C31.9933 36.1162 33.1997 35.9974 34.2961 35.5433C35.3925 35.0892 36.3295 34.3201 36.9888 33.3334C37.6481 32.3467 38 31.1867 38 30C38 28.4087 37.3679 26.8826 36.2426 25.7574C35.1174 24.6321 33.5913 24 32 24ZM32 34C31.2089 34 30.4355 33.7654 29.7777 33.3259C29.1199 32.8864 28.6072 32.2616 28.3045 31.5307C28.0017 30.7998 27.9225 29.9956 28.0769 29.2196C28.2312 28.4437 28.6122 27.731 29.1716 27.1716C29.731 26.6122 30.4437 26.2312 31.2196 26.0769C31.9956 25.9225 32.7998 26.0017 33.5307 26.3045C34.2616 26.6072 34.8864 27.1199 35.3259 27.7777C35.7654 28.4355 36 29.2089 36 30C36 31.0609 35.5786 32.0783 34.8284 32.8284C34.0783 33.5786 33.0609 34 32 34Z" fill="black"/>
</g>
<defs>
<filter id="filter0_d_4_454" x="0" y="0" width="64" height="64" filterUnits="userSpaceOnUse" color-interpolation-filters="sRGB">
<feFlood flood-opacity="0" result="BackgroundImageFix"/>
<feColorMatrix in="SourceAlpha" type="matrix" values="0 0 0 0 0 0 0 0 0 0 0 0 0 0 0 0 0 0 127 0" result="hardAlpha"/>
<feOffset dy="2"/>
<feGaussianBlur stdDeviation="4"/>
<feComposite in2="hardAlpha" operator="out"/>
<feColorMatrix type="matrix" values="0 0 0 0 0 0 0 0 0 0 0 0 0 0 0 0 0 0 0.08 0"/>
<feBlend mode="normal" in2="BackgroundImageFix" result="effect1_dropShadow_4_454"/>
<feBlend mode="normal" in="SourceGraphic" in2="effect1_dropShadow_4_454" result="shape"/>
</filter>
</defs>
</svg>
